{
    "asset" : {
        "generator" : "Khronos glTF Blender I/O v1.4.40",
        "version" : "2.0"
    },
    "scene" : 0,
    "scenes" : [
        {
            "name" : "Scene",
            "nodes" : [
                0,
                1,
                2
            ]
        }
    ],
    "nodes" : [
        {
            "mesh" : 0,
            "name" : "brazier",
            "translation" : [
                2.5323610305786133,
                0.11810606718063354,
                -3.559035062789917
            ]
        },
        {
            "mesh" : 1,
            "name" : "statue_assise",
            "rotation" : [
                -0.27995818853378296,
                -0.6516565084457397,
                0.11259819567203522,
                -0.6959086656570435
            ],
            "translation" : [
                2.239025831222534,
                0.2719171643257141,
                -2.707782745361328
            ]
        },
        {
            "mesh" : 2,
            "name" : "statue_debout",
            "rotation" : [
                -0.13871115446090698,
                0.8908799290657043,
                -0.23487907648086548,
                -0.363213449716568
            ],
            "translation" : [
                1.445518970489502,
                0.27954623103141785,
                -2.103583812713623
            ]
        }
    ],
    "materials" : [
        {
            "doubleSided" : true,
            "name" : "Texture_Statues_Brasier_Bake",
            "pbrMetallicRoughness" : {
                "baseColorTexture" : {
                    "index" : 0,
                    "texCoord" : 0
                },
                "metallicFactor" : 0,
                "roughnessFactor" : 0.5
            }
        }
    ],
    "meshes" : [
        {
            "name" : "Plane.104",
            "primitives" : [
                {
                    "attributes" : {
                        "POSITION" : 0,
                        "NORMAL" : 1,
                        "TEXCOORD_0" : 2
                    },
                    "indices" : 3,
                    "material" : 0
                }
            ]
        },
        {
            "name" : "Plane.101",
            "primitives" : [
                {
                    "attributes" : {
                        "POSITION" : 4,
                        "NORMAL" : 5,
                        "TEXCOORD_0" : 6,
                        "COLOR_0" : 7
                    },
                    "indices" : 8,
                    "material" : 0
                }
            ]
        },
        {
            "name" : "Plane.089",
            "primitives" : [
                {
                    "attributes" : {
                        "POSITION" : 9,
                        "NORMAL" : 10,
                        "TEXCOORD_0" : 11,
                        "COLOR_0" : 12
                    },
                    "indices" : 13,
                    "material" : 0
                }
            ]
        }
    ],
    "textures" : [
        {
            "sampler" : 0,
            "source" : 0
        }
    ],
    "images" : [
        {
            "mimeType" : "image/png",
            "name" : "Texture_Statues_Brasier_bake",
            "uri" : "Texture_Statues_Brasier_bake.png"
        }
    ],
    "accessors" : [
        {
            "bufferView" : 0,
            "componentType" : 5126,
            "count" : 520,
            "max" : [
                0.24307239055633545,
                0.05864742025732994,
                0.26556530594825745
            ],
            "min" : [
                -0.23454409837722778,
                -0.11755082756280899,
                -0.27464815974235535
            ],
            "type" : "VEC3"
        },
        {
            "bufferView" : 1,
            "componentType" : 5126,
            "count" : 520,
            "type" : "VEC3"
        },
        {
            "bufferView" : 2,
            "componentType" : 5126,
            "count" : 520,
            "type" : "VEC2"
        },
        {
            "bufferView" : 3,
            "componentType" : 5123,
            "count" : 780,
            "type" : "SCALAR"
        },
        {
            "bufferView" : 4,
            "componentType" : 5126,
            "count" : 5473,
            "max" : [
                0.25995901226997375,
                0.531438946723938,
                0.4476206302642822
            ],
            "min" : [
                -0.2558872401714325,
                -0.4455909729003906,
                -0.9492305517196655
            ],
            "type" : "VEC3"
        },
        {
            "bufferView" : 5,
            "componentType" : 5126,
            "count" : 5473,
            "type" : "VEC3"
        },
        {
            "bufferView" : 6,
            "componentType" : 5126,
            "count" : 5473,
            "type" : "VEC2"
        },
        {
            "bufferView" : 7,
            "componentType" : 5123,
            "count" : 5473,
            "normalized" : true,
            "type" : "VEC4"
        },
        {
            "bufferView" : 8,
            "componentType" : 5123,
            "count" : 8133,
            "type" : "SCALAR"
        },
        {
            "bufferView" : 9,
            "componentType" : 5126,
            "count" : 5682,
            "max" : [
                0.25697630643844604,
                1.266777753829956,
                0.35671478509902954
            ],
            "min" : [
                -0.2675058841705322,
                -0.3544737696647644,
                -0.5783289074897766
            ],
            "type" : "VEC3"
        },
        {
            "bufferView" : 10,
            "componentType" : 5126,
            "count" : 5682,
            "type" : "VEC3"
        },
        {
            "bufferView" : 11,
            "componentType" : 5126,
            "count" : 5682,
            "type" : "VEC2"
        },
        {
            "bufferView" : 12,
            "componentType" : 5123,
            "count" : 5682,
            "normalized" : true,
            "type" : "VEC4"
        },
        {
            "bufferView" : 13,
            "componentType" : 5123,
            "count" : 8448,
            "type" : "SCALAR"
        }
    ],
    "bufferViews" : [
        {
            "buffer" : 0,
            "byteLength" : 6240,
            "byteOffset" : 0
        },
        {
            "buffer" : 0,
            "byteLength" : 6240,
            "byteOffset" : 6240
        },
        {
            "buffer" : 0,
            "byteLength" : 4160,
            "byteOffset" : 12480
        },
        {
            "buffer" : 0,
            "byteLength" : 1560,
            "byteOffset" : 16640
        },
        {
            "buffer" : 0,
            "byteLength" : 65676,
            "byteOffset" : 18200
        },
        {
            "buffer" : 0,
            "byteLength" : 65676,
            "byteOffset" : 83876
        },
        {
            "buffer" : 0,
            "byteLength" : 43784,
            "byteOffset" : 149552
        },
        {
            "buffer" : 0,
            "byteLength" : 43784,
            "byteOffset" : 193336
        },
        {
            "buffer" : 0,
            "byteLength" : 16266,
            "byteOffset" : 237120
        },
        {
            "buffer" : 0,
            "byteLength" : 68184,
            "byteOffset" : 253388
        },
        {
            "buffer" : 0,
            "byteLength" : 68184,
            "byteOffset" : 321572
        },
        {
            "buffer" : 0,
            "byteLength" : 45456,
            "byteOffset" : 389756
        },
        {
            "buffer" : 0,
            "byteLength" : 45456,
            "byteOffset" : 435212
        },
        {
            "buffer" : 0,
            "byteLength" : 16896,
            "byteOffset" : 480668
        }
    ],
    "samplers" : [
        {
            "magFilter" : 9729,
            "minFilter" : 9986
        }
    ],
    "buffers" : [
        {
            "byteLength" : 497564,
            "uri" : "statues_brasier.bin"
        }
    ]
}
