{
    "asset" : {
        "generator" : "Khronos glTF Blender I/O v1.4.40",
        "version" : "2.0"
    },
    "scene" : 0,
    "scenes" : [
        {
            "name" : "Scene",
            "nodes" : [
                0
            ]
        }
    ],
    "nodes" : [
        {
            "mesh" : 0,
            "name" : "statueAssis",
            "rotation" : [
                -0.34610074758529663,
                -0.6394197940826416,
                0.4857085943222046,
                -0.48522549867630005
            ],
            "scale" : [
                0.2800689935684204,
                0.2800680100917816,
                0.2800680100917816
            ],
            "translation" : [
                0.07661180198192596,
                8.249469101428986e-05,
                0.14714425802230835
            ]
        }
    ],
    "materials" : [
        {
            "doubleSided" : true,
            "emissiveFactor" : [
                1,
                1,
                1
            ],
            "emissiveTexture" : {
                "index" : 0,
                "texCoord" : 0
            },
            "name" : "texture.001",
            "pbrMetallicRoughness" : {}
        }
    ],
    "meshes" : [
        {
            "name" : "Plane.054",
            "primitives" : [
                {
                    "attributes" : {
                        "POSITION" : 0,
                        "NORMAL" : 1,
                        "TEXCOORD_0" : 2,
                        "COLOR_0" : 3
                    },
                    "indices" : 4,
                    "material" : 0
                }
            ]
        }
    ],
    "textures" : [
        {
            "sampler" : 0,
            "source" : 0
        }
    ],
    "images" : [
        {
            "mimeType" : "image/png",
            "name" : "textureAssis2",
            "uri" : "textureAssis2.png"
        }
    ],
    "accessors" : [
        {
            "bufferView" : 0,
            "componentType" : 5126,
            "count" : 9413,
            "max" : [
                12.753950119018555,
                6.846887111663818,
                1.2503159046173096
            ],
            "min" : [
                -6.319370269775391,
                -4.766960620880127,
                -19.551950454711914
            ],
            "type" : "VEC3"
        },
        {
            "bufferView" : 1,
            "componentType" : 5126,
            "count" : 9413,
            "type" : "VEC3"
        },
        {
            "bufferView" : 2,
            "componentType" : 5126,
            "count" : 9413,
            "type" : "VEC2"
        },
        {
            "bufferView" : 3,
            "componentType" : 5123,
            "count" : 9413,
            "normalized" : true,
            "type" : "VEC4"
        },
        {
            "bufferView" : 4,
            "componentType" : 5123,
            "count" : 14103,
            "type" : "SCALAR"
        }
    ],
    "bufferViews" : [
        {
            "buffer" : 0,
            "byteLength" : 112956,
            "byteOffset" : 0
        },
        {
            "buffer" : 0,
            "byteLength" : 112956,
            "byteOffset" : 112956
        },
        {
            "buffer" : 0,
            "byteLength" : 75304,
            "byteOffset" : 225912
        },
        {
            "buffer" : 0,
            "byteLength" : 75304,
            "byteOffset" : 301216
        },
        {
            "buffer" : 0,
            "byteLength" : 28206,
            "byteOffset" : 376520
        }
    ],
    "samplers" : [
        {
            "magFilter" : 9729,
            "minFilter" : 9986
        }
    ],
    "buffers" : [
        {
            "byteLength" : 404728,
            "uri" : "statueAssis.bin"
        }
    ]
}
