<svg width="68" height="48" viewBox="0 0 68 48" fill="none" xmlns="http://www.w3.org/2000/svg">
<path d="M67.1376 45.5229L62.7073 32.232V2.12195C62.7073 1.50179 62.2049 1 61.5853 1H7.73166C7.11206 1 6.60971 1.50179 6.60971 2.12195V32.1908L1.08662 45.4464C0.941892 45.7925 0.980319 46.188 1.18844 46.5005C1.39656 46.8129 1.74661 47 2.1219 47H66.0731C66.4335 47 66.7721 46.8269 66.983 46.5344C67.194 46.2418 67.2514 45.8649 67.1376 45.5229ZM8.85361 3.2439H60.4634V31.2927H8.85361V3.2439ZM3.80483 44.7561L8.47944 33.5366H60.7767L64.5167 44.7561H3.80483Z" fill="#FFC75B" stroke="black"/>
<path d="M22.7813 6.61088L21.1948 5.02441L12.1243 14.095L13.7107 15.6814L22.7813 6.61088Z" fill="#FFC75B" stroke="black"/>
<path d="M11.7551 20.0727L13.3416 21.6592L28.3909 6.60988L26.8044 5.02341L11.7551 20.0727Z" fill="#FFC75B" stroke="black"/>
<path d="M43.634 41.3896H24.5608V43.6336H43.634V41.3896Z" fill="#FFC75B" stroke="black"/>
<path d="M51.4877 41.3896H45.8779V43.6336H51.4877V41.3896Z" fill="#FFC75B" stroke="black"/>
<path d="M22.317 41.3896H16.7073V43.6336H22.317V41.3896Z" fill="#FFC75B" stroke="black"/>
</svg>
