<svg width="61" height="25" viewBox="0 0 61 25" fill="none" xmlns="http://www.w3.org/2000/svg">
<rect x="0.5" y="0.5" width="60" height="24" rx="4.5" stroke="#FFB662"/>
<path d="M14.1769 16.208H18.7249V17H13.3129V8.504H18.5809V9.296H14.1769V12.188H18.2929V12.98H14.1769V16.208ZM23.1142 12.716C22.9942 12.484 22.8342 12.3 22.6342 12.164C22.4342 12.028 22.1902 11.96 21.9022 11.96C21.7662 11.96 21.6262 11.976 21.4822 12.008C21.3462 12.04 21.2222 12.092 21.1102 12.164C20.9982 12.228 20.9062 12.312 20.8342 12.416C20.7702 12.52 20.7382 12.648 20.7382 12.8C20.7382 13.064 20.8302 13.256 21.0142 13.376C21.1982 13.496 21.4742 13.6 21.8422 13.688L22.6462 13.88C23.0382 13.968 23.3622 14.148 23.6182 14.42C23.8822 14.684 24.0142 15.016 24.0142 15.416C24.0142 15.72 23.9502 15.984 23.8222 16.208C23.7022 16.424 23.5382 16.604 23.3302 16.748C23.1302 16.884 22.8982 16.984 22.6342 17.048C22.3702 17.112 22.1022 17.144 21.8302 17.144C21.3982 17.144 20.9942 17.064 20.6182 16.904C20.2502 16.736 19.9342 16.452 19.6702 16.052L20.3542 15.584C20.5142 15.84 20.7142 16.044 20.9542 16.196C21.2022 16.348 21.4942 16.424 21.8302 16.424C21.9902 16.424 22.1502 16.408 22.3102 16.376C22.4702 16.336 22.6102 16.28 22.7302 16.208C22.8582 16.128 22.9582 16.028 23.0302 15.908C23.1102 15.788 23.1502 15.648 23.1502 15.488C23.1502 15.208 23.0462 15.008 22.8382 14.888C22.6302 14.76 22.3782 14.66 22.0822 14.588L21.3142 14.408C21.2182 14.384 21.0862 14.344 20.9182 14.288C20.7582 14.232 20.5982 14.148 20.4382 14.036C20.2862 13.924 20.1542 13.78 20.0422 13.604C19.9302 13.42 19.8742 13.196 19.8742 12.932C19.8742 12.644 19.9302 12.392 20.0422 12.176C20.1622 11.96 20.3182 11.784 20.5102 11.648C20.7102 11.512 20.9342 11.412 21.1822 11.348C21.4302 11.276 21.6862 11.24 21.9502 11.24C22.3422 11.24 22.7062 11.316 23.0422 11.468C23.3782 11.62 23.6382 11.88 23.8222 12.248L23.1142 12.716ZM30.3715 14.192C30.3715 13.88 30.3195 13.588 30.2155 13.316C30.1195 13.044 29.9795 12.808 29.7955 12.608C29.6115 12.408 29.3875 12.252 29.1235 12.14C28.8675 12.02 28.5755 11.96 28.2475 11.96C27.9195 11.96 27.6195 12.02 27.3475 12.14C27.0755 12.252 26.8395 12.408 26.6395 12.608C26.4395 12.808 26.2835 13.044 26.1715 13.316C26.0595 13.588 26.0035 13.88 26.0035 14.192C26.0035 14.504 26.0595 14.796 26.1715 15.068C26.2835 15.34 26.4395 15.576 26.6395 15.776C26.8395 15.976 27.0755 16.136 27.3475 16.256C27.6195 16.368 27.9195 16.424 28.2475 16.424C28.5755 16.424 28.8675 16.368 29.1235 16.256C29.3875 16.136 29.6115 15.976 29.7955 15.776C29.9795 15.576 30.1195 15.34 30.2155 15.068C30.3195 14.796 30.3715 14.504 30.3715 14.192ZM25.2475 11.384H26.0395V12.32H26.0635C26.1915 12.128 26.3435 11.964 26.5195 11.828C26.6955 11.692 26.8795 11.58 27.0715 11.492C27.2635 11.404 27.4595 11.34 27.6595 11.3C27.8675 11.26 28.0635 11.24 28.2475 11.24C28.6875 11.24 29.0875 11.316 29.4475 11.468C29.8155 11.612 30.1315 11.816 30.3955 12.08C30.6595 12.344 30.8635 12.656 31.0075 13.016C31.1595 13.376 31.2355 13.768 31.2355 14.192C31.2355 14.616 31.1595 15.008 31.0075 15.368C30.8635 15.728 30.6595 16.04 30.3955 16.304C30.1315 16.568 29.8155 16.776 29.4475 16.928C29.0875 17.072 28.6875 17.144 28.2475 17.144C28.0635 17.144 27.8675 17.124 27.6595 17.084C27.4595 17.044 27.2635 16.98 27.0715 16.892C26.8795 16.804 26.6955 16.692 26.5195 16.556C26.3435 16.42 26.1915 16.256 26.0635 16.064H26.0395V20.456H25.2475V11.384ZM35.7755 14.204C35.5755 14.204 35.3235 14.216 35.0195 14.24C34.7235 14.256 34.4355 14.304 34.1555 14.384C33.8835 14.456 33.6475 14.572 33.4475 14.732C33.2555 14.892 33.1595 15.112 33.1595 15.392C33.1595 15.576 33.1955 15.736 33.2675 15.872C33.3475 16 33.4515 16.108 33.5795 16.196C33.7075 16.276 33.8475 16.336 33.9995 16.376C34.1595 16.408 34.3195 16.424 34.4795 16.424C34.7675 16.424 35.0155 16.376 35.2235 16.28C35.4395 16.184 35.6195 16.056 35.7635 15.896C35.9075 15.728 36.0115 15.536 36.0755 15.32C36.1475 15.096 36.1835 14.86 36.1835 14.612V14.204H35.7755ZM36.1835 13.556V13.412C36.1835 12.444 35.7035 11.96 34.7435 11.96C34.0875 11.96 33.5155 12.18 33.0275 12.62L32.5475 12.056C33.0755 11.512 33.8675 11.24 34.9235 11.24C35.1955 11.24 35.4555 11.28 35.7035 11.36C35.9595 11.44 36.1795 11.564 36.3635 11.732C36.5475 11.892 36.6955 12.096 36.8075 12.344C36.9195 12.592 36.9755 12.888 36.9755 13.232V15.74C36.9755 15.956 36.9835 16.184 36.9995 16.424C37.0235 16.656 37.0475 16.848 37.0715 17H36.3035C36.2795 16.864 36.2595 16.716 36.2435 16.556C36.2355 16.396 36.2315 16.24 36.2315 16.088H36.2075C35.9755 16.464 35.6995 16.736 35.3795 16.904C35.0675 17.064 34.6835 17.144 34.2275 17.144C33.9795 17.144 33.7395 17.108 33.5075 17.036C33.2755 16.972 33.0675 16.872 32.8835 16.736C32.7075 16.592 32.5635 16.42 32.4515 16.22C32.3475 16.012 32.2955 15.772 32.2955 15.5C32.2955 15.044 32.4115 14.688 32.6435 14.432C32.8835 14.168 33.1795 13.972 33.5315 13.844C33.8915 13.716 34.2715 13.636 34.6715 13.604C35.0795 13.572 35.4515 13.556 35.7875 13.556H36.1835ZM42.8981 12.704C42.7621 12.496 42.5701 12.32 42.3221 12.176C42.0821 12.032 41.8061 11.96 41.4941 11.96C41.1661 11.952 40.8701 12.004 40.6061 12.116C40.3501 12.228 40.1301 12.384 39.9461 12.584C39.7621 12.784 39.6221 13.024 39.5261 13.304C39.4301 13.576 39.3821 13.872 39.3821 14.192C39.3821 14.512 39.4301 14.812 39.5261 15.092C39.6221 15.364 39.7621 15.6 39.9461 15.8C40.1301 16 40.3501 16.156 40.6061 16.268C40.8701 16.38 41.1661 16.432 41.4941 16.424C41.8061 16.424 42.0821 16.352 42.3221 16.208C42.5701 16.064 42.7621 15.888 42.8981 15.68L43.5461 16.172C43.2661 16.5 42.9501 16.744 42.5981 16.904C42.2461 17.056 41.8781 17.136 41.4941 17.144C41.0381 17.152 40.6261 17.084 40.2581 16.94C39.8901 16.788 39.5741 16.58 39.3101 16.316C39.0541 16.052 38.8581 15.74 38.7221 15.38C38.5861 15.012 38.5181 14.616 38.5181 14.192C38.5181 13.768 38.5861 13.376 38.7221 13.016C38.8581 12.648 39.0541 12.332 39.3101 12.068C39.5741 11.804 39.8901 11.6 40.2581 11.456C40.6261 11.304 41.0381 11.232 41.4941 11.24C41.8781 11.248 42.2461 11.332 42.5981 11.492C42.9501 11.644 43.2661 11.884 43.5461 12.212L42.8981 12.704ZM48.9632 13.76C48.9632 13.224 48.8032 12.792 48.4832 12.464C48.1632 12.128 47.7152 11.96 47.1392 11.96C46.8832 11.96 46.6352 12.012 46.3952 12.116C46.1552 12.212 45.9432 12.344 45.7592 12.512C45.5832 12.68 45.4392 12.872 45.3272 13.088C45.2232 13.304 45.1712 13.528 45.1712 13.76H48.9632ZM45.1472 14.408C45.1712 14.688 45.2392 14.952 45.3512 15.2C45.4632 15.448 45.6112 15.664 45.7952 15.848C45.9792 16.024 46.1912 16.164 46.4312 16.268C46.6712 16.372 46.9312 16.424 47.2112 16.424C47.6352 16.424 47.9992 16.328 48.3032 16.136C48.6152 15.936 48.8512 15.708 49.0112 15.452L49.6232 15.956C49.2872 16.38 48.9152 16.684 48.5072 16.868C48.1072 17.052 47.6752 17.144 47.2112 17.144C46.7952 17.144 46.4072 17.072 46.0472 16.928C45.6952 16.776 45.3912 16.568 45.1352 16.304C44.8792 16.04 44.6752 15.728 44.5232 15.368C44.3792 15.008 44.3072 14.616 44.3072 14.192C44.3072 13.768 44.3792 13.376 44.5232 13.016C44.6672 12.656 44.8672 12.344 45.1232 12.08C45.3792 11.816 45.6792 11.612 46.0232 11.468C46.3672 11.316 46.7392 11.24 47.1392 11.24C47.5632 11.24 47.9432 11.316 48.2792 11.468C48.6152 11.62 48.8952 11.824 49.1192 12.08C49.3512 12.328 49.5272 12.624 49.6472 12.968C49.7672 13.304 49.8272 13.664 49.8272 14.048V14.408H45.1472Z" fill="#FFB662"/>
</svg>
