<svg width="188" height="41" viewBox="0 0 188 41" fill="none" xmlns="http://www.w3.org/2000/svg">
<path d="M34.4893 27.757V27.2204C34.4893 24.5861 35.3673 22.6836 38.587 22.6836C41.0261 22.6836 42.0993 23.708 42.392 25.9032L40.3431 26.1959C40.2456 25.0252 39.8065 24.3422 38.587 24.3422C36.9284 24.3422 36.4406 25.4154 36.4406 27.2204V27.757C36.4406 29.7083 36.9284 30.6351 38.587 30.6351C39.9041 30.6351 40.2944 30.0985 40.4407 28.635L42.4896 28.879C42.1481 30.9766 41.1237 32.2937 38.4406 32.2937C35.4161 32.2937 34.4893 30.3912 34.4893 27.757Z" fill="#F9B465"/>
<path d="M43.124 27.757V27.2204C43.124 24.5861 44.0021 22.6836 47.2217 22.6836C49.6609 22.6836 50.7341 23.708 51.0268 25.9032L48.9779 26.1959C48.8803 25.0252 48.4413 24.3422 47.2217 24.3422C45.5631 24.3422 45.0753 25.4154 45.0753 27.2204V27.757C45.0753 29.7083 45.5631 30.6351 47.2217 30.6351C48.5389 30.6351 48.9291 30.0985 49.0755 28.635L51.1243 28.879C50.7829 30.9766 49.7584 32.2937 47.0754 32.2937C44.0509 32.2937 43.124 30.3912 43.124 27.757Z" fill="#F9B465"/>
<path d="M52.2461 22.7812H54.1486V32.245H52.2461V22.7812Z" fill="#F9B465"/>
<path d="M58.3916 23.6592H62.0991C63.5625 23.6592 65.0748 24.0982 65.0748 26.2446C65.0748 28.1472 63.6601 28.9765 62.0991 28.9765H60.099V32.2449H58.3916V23.6592ZM61.9039 27.5618C62.7332 27.5618 63.3674 27.3179 63.3674 26.3422C63.3674 25.3666 62.8308 25.1227 61.9039 25.1227H60.099V27.6106H61.9039V27.5618Z" fill="#F9B465"/>
<path d="M68.2961 23.6113H70.0523L72.9792 32.2458H71.2231L70.6377 30.5384H67.662L67.0766 32.2458H65.418L68.2961 23.6113ZM68.1498 29.1237H70.1986L69.1742 26.0992L68.1498 29.1237Z" fill="#F9B465"/>
<path d="M77.2224 28.8789H75.5638V32.2449H73.8564V23.6592H77.5639C79.0762 23.6592 80.5396 24.0982 80.5396 26.1959C80.5396 27.513 79.8079 28.2447 78.9786 28.5862L80.686 32.1961H78.8323L77.2224 28.8789ZM77.3688 27.4642C78.3444 27.4642 78.8323 27.1227 78.8323 26.2934C78.8323 25.5129 78.3444 25.1227 77.3688 25.1227H75.5638V27.4642H77.3688Z" fill="#F9B465"/>
<path d="M81.8564 23.6592H83.5638V32.1961H81.8564V23.6592Z" fill="#F9B465"/>
<path d="M84.6377 29.6593L86.4914 29.4642C86.6866 30.3423 87.0768 30.7813 88.3939 30.7813C89.3696 30.7813 90.0038 30.5374 90.0038 29.7569C90.0038 28.9764 89.3208 28.83 88.0525 28.5373C86.4914 28.1959 85.0279 27.8056 85.0279 26.0006C85.0279 24.6347 85.906 23.5615 88.2964 23.5615C90.1989 23.5615 91.2233 24.342 91.6136 25.8055L89.7111 26.0494C89.5647 25.3665 89.1745 25.0738 88.2964 25.0738C87.1256 25.0738 86.7353 25.3665 86.7353 25.9519C86.7353 26.5373 87.2719 26.7324 88.4915 27.0251C90.4916 27.4641 91.7111 27.9032 91.7111 29.7569C91.7111 31.4643 90.1989 32.2936 88.3452 32.2936C85.8085 32.2936 84.9792 31.2204 84.6377 29.6593Z" fill="#F9B465"/>
<path d="M95.2236 23.6592H96.931V32.1961H95.2236V23.6592Z" fill="#F9B465"/>
<path d="M98.54 23.6592H100.247V30.7326H104.15V32.2449H98.54V23.6592Z" fill="#F9B465"/>
<path d="M105.126 23.6592H110.931V25.1714H106.833V26.83H110.492V28.3423H106.833V30.7326H110.931V32.2449H105.126V23.6592Z" fill="#F9B465"/>
<path d="M111.761 27.8066H115.907V29.2701H111.761V27.8066Z" fill="#F9B465"/>
<path d="M116.979 23.6592H119.955C122.931 23.6592 123.663 25.3178 123.663 27.6593V28.1959C123.663 30.5375 122.736 32.1961 119.955 32.1961H116.979V23.6592ZM119.955 30.7814C121.565 30.7814 121.907 29.757 121.907 28.1959V27.6593C121.907 25.8544 121.419 25.1227 119.955 25.1227H118.736V30.7814H119.955Z" fill="#F9B465"/>
<path d="M124.785 23.6592H130.59V25.1714H126.493V26.83H130.151V28.3423H126.493V30.7326H130.59V32.2449H124.785V23.6592Z" fill="#F9B465"/>
<path d="M131.419 27.8066H135.565V29.2701H131.419V27.8066Z" fill="#F9B465"/>
<path d="M136.64 23.6592H142.445V25.1714H138.347V26.9764H142.006V28.4886H138.347V32.1961H136.64V23.6592Z" fill="#F9B465"/>
<path d="M146.786 28.8789H145.127V32.2449H143.371V23.6592H147.079C148.591 23.6592 150.054 24.0982 150.054 26.1959C150.054 27.513 149.323 28.2447 148.493 28.5862L150.201 32.1961H148.347L146.786 28.8789ZM146.883 27.4642C147.859 27.4642 148.347 27.1227 148.347 26.2934C148.347 25.5129 147.859 25.1227 146.883 25.1227H145.078V27.4642H146.883Z" fill="#F9B465"/>
<path d="M153.568 23.6113H155.324L158.251 32.2458H156.495L155.909 30.5384H152.933L152.348 32.2458H150.689L153.568 23.6113ZM153.421 29.1237H155.47L154.446 26.0992L153.421 29.1237Z" fill="#F9B465"/>
<path d="M159.129 23.6592H161.178L164.105 28.9765V23.6592H165.763V32.1961H164.056L160.739 26.1959V32.1961H159.08V23.6592H159.129Z" fill="#F9B465"/>
<path d="M166.933 28.1969V27.7091C166.933 25.3187 167.713 23.6113 170.64 23.6113C172.835 23.6113 173.811 24.5382 174.055 26.5383L172.201 26.831C172.152 25.7578 171.713 25.1724 170.591 25.1724C169.079 25.1724 168.689 26.148 168.689 27.7578V28.2457C168.689 30.0018 169.128 30.8311 170.64 30.8311C171.811 30.8311 172.152 30.3433 172.299 29.0262L174.152 29.2213C173.811 31.1238 172.933 32.2946 170.494 32.2946C167.762 32.2946 166.933 30.5384 166.933 28.1969Z" fill="#F9B465"/>
<path d="M175.178 23.6592H180.983V25.1714H176.885V26.83H180.544V28.3423H176.885V30.7326H180.983V32.2449H175.178V23.6592Z" fill="#F9B465"/>
<path d="M6.29297 27.7084C6.29297 34.5868 11.8542 40.148 18.7325 40.148C22.0009 40.148 24.5864 38.9284 26.3913 37.5137L23.7571 34.5868C22.2936 35.6112 20.635 36.1966 18.7325 36.1966C14.0494 36.1966 10.2443 32.3915 10.2443 27.7084C10.2443 23.0253 14.0494 19.2203 18.7325 19.2203C19.952 19.2203 21.074 19.4642 22.1473 19.952L23.7083 16.3421C22.196 15.6592 20.4887 15.3177 18.7325 15.3177C11.9029 15.2689 6.29297 20.8789 6.29297 27.7084Z" fill="#F9B465"/>
<path d="M12.1475 27.7086C12.1475 31.3673 15.1232 34.343 18.7819 34.343C20.1966 34.343 21.6113 33.8552 22.4893 33.1723C22.4893 33.1723 20.0014 30.4404 19.8063 30.1965C19.5624 30.2941 19.1233 30.3917 18.7819 30.3917C17.3184 30.3917 16.0988 29.1721 16.0988 27.7086C16.0988 26.2452 17.3184 24.9768 18.7819 24.9768C19.1721 24.9768 19.5624 25.0744 19.8551 25.2207L21.4161 21.6596C20.6356 21.3181 19.7575 21.0742 18.7331 21.0742C15.0744 21.0742 12.1475 24.0499 12.1475 27.7086Z" fill="#F9B465"/>
<path d="M23.7084 25.1234C24.0499 25.8064 24.3426 26.7333 24.3426 27.7089C24.3426 28.9773 23.806 30.2944 23.123 31.2212L25.8061 34.1482C27.2696 32.5872 28.294 30.2456 28.294 27.7089C28.294 26.1967 27.9037 24.6844 27.2696 23.4648L23.7084 25.1234Z" fill="#FBCB9A"/>
<path d="M22.5859 23.6596L29.3667 20.4888C28.391 19.0253 27.0251 17.6594 25.6104 16.8301L22.5859 23.6596Z" fill="#FBCB9A"/>
<path d="M0.0498047 8.87891H187.179" stroke="#F9B465" stroke-width="0.5" stroke-miterlimit="10"/>
<path d="M2.29277 5.36585C2.04886 5.60976 1.6586 5.80489 1.122 5.80489C0.243912 5.80489 0 5.31707 0 4.48777V1.85352H1.02443V4.29264C1.02443 4.63411 1.122 4.87803 1.56104 4.87803C2.04886 4.87803 2.29277 4.73168 2.29277 4.09751V1.85352H3.3172V5.75611H2.29277V5.36585Z" fill="#F9B465"/>
<path d="M4.58594 1.85347H5.61037V2.24373C5.85428 1.99982 6.24454 1.80469 6.82993 1.80469C7.70801 1.80469 8.00071 2.29251 8.00071 3.12181V5.80485H6.97628V3.31694C6.97628 2.97547 6.87871 2.73155 6.43967 2.73155C5.90306 2.73155 5.65915 2.92668 5.65915 3.60964V5.75606H4.58594V1.85347Z" fill="#F9B465"/>
<path d="M8.92676 3.90233V3.7072C8.92676 2.53642 9.56093 1.80469 10.7317 1.80469C11.9025 1.80469 12.3903 2.43886 12.3903 3.56085V4.14624H9.95119C9.99997 4.73163 10.1463 5.02433 10.7317 5.02433C11.2683 5.02433 11.3659 4.87798 11.4634 4.58529L12.4391 4.73163C12.2927 5.26824 11.9025 5.85363 10.7805 5.85363C9.41458 5.80485 8.92676 5.07311 8.92676 3.90233ZM9.95119 3.36572H11.4147C11.4147 2.8779 11.2683 2.63399 10.7317 2.63399C10.1951 2.63399 9.99997 2.8779 9.95119 3.36572Z" fill="#F9B465"/>
<path d="M15.0742 3.90291V3.70778C15.0742 2.53701 15.7084 1.80527 16.8792 1.80527C18.0499 1.80527 18.5378 2.43944 18.5378 3.56144V4.14683H16.0986C16.1474 4.73221 16.2938 5.02491 16.8792 5.02491C17.4158 5.02491 17.5133 4.87856 17.6109 4.58587L18.5866 4.73221C18.4402 5.26882 18.0499 5.85421 16.928 5.85421C15.6108 5.80543 15.0742 5.07369 15.0742 3.90291ZM17.2694 0.341797H18.489L17.2206 1.46379H16.0986L17.2694 0.341797ZM16.1474 3.36631H17.6109C17.6109 2.87848 17.4646 2.63457 16.928 2.63457C16.3426 2.63457 16.1962 2.87848 16.1474 3.36631Z" fill="#F9B465"/>
<path d="M19.3672 3.90233V3.7072C19.3672 2.48764 20.0501 1.80469 21.1721 1.80469C22.1966 1.80469 22.6844 2.19495 22.8795 3.21938L21.8551 3.41451C21.8063 2.8779 21.5624 2.73155 21.1721 2.73155C20.5867 2.73155 20.4404 3.07303 20.4404 3.80477V3.90233C20.4404 4.58529 20.6355 4.97554 21.1721 4.97554C21.66 4.97554 21.8551 4.78041 21.9039 4.34137L22.9283 4.48772C22.7332 5.3658 22.1478 5.85363 21.1721 5.85363C19.855 5.80485 19.3672 5.02433 19.3672 3.90233Z" fill="#F9B465"/>
<path d="M23.6602 3.90233V3.7072C23.6602 2.63399 24.0992 1.80469 25.4651 1.80469C26.831 1.80469 27.2701 2.63399 27.2701 3.7072V3.90233C27.2701 4.97554 26.7334 5.80485 25.4651 5.80485C24.1968 5.80485 23.6602 4.97554 23.6602 3.90233ZM26.1968 3.85355V3.75598C26.1968 3.02425 26.0505 2.68277 25.4651 2.68277C24.8797 2.68277 24.7334 3.02425 24.7334 3.75598V3.85355C24.7334 4.58529 24.9285 4.92676 25.4651 4.92676C25.9529 4.92676 26.1968 4.5365 26.1968 3.85355Z" fill="#F9B465"/>
<path d="M28.2451 0H29.2695V5.75633H28.2451V0Z" fill="#F9B465"/>
<path d="M30.2939 3.90233V3.7072C30.2939 2.53642 30.9281 1.80469 32.0989 1.80469C33.2697 1.80469 33.7575 2.43886 33.7575 3.56085V4.14624H31.3184C31.3672 4.73163 31.5135 5.02433 32.0989 5.02433C32.6355 5.02433 32.7331 4.87798 32.8306 4.58529L33.8063 4.73163C33.6599 5.26824 33.2697 5.85363 32.1477 5.85363C30.8306 5.80485 30.2939 5.07311 30.2939 3.90233ZM31.3672 3.36572H32.8306C32.8306 2.8779 32.6843 2.63399 32.1477 2.63399C31.5623 2.63399 31.4159 2.8779 31.3672 3.36572Z" fill="#F9B465"/>
<path d="M39.0748 5.31728C38.8796 5.5612 38.5382 5.75633 37.9528 5.75633C36.782 5.75633 36.5381 4.97581 36.5381 3.85381V3.70746C36.5381 2.68303 36.8796 1.80495 37.9528 1.80495C38.5382 1.80495 38.8309 1.9513 39.0748 2.19521V0H40.0992V5.75633H39.0748V5.31728ZM39.0748 3.95138V3.6099C39.0748 2.97573 38.8796 2.68303 38.2455 2.68303C37.6601 2.68303 37.5625 3.07329 37.5625 3.75625V3.85381C37.5625 4.53677 37.6113 4.92702 38.2455 4.92702C38.8796 4.92702 39.0748 4.53677 39.0748 3.95138Z" fill="#F9B465"/>
<path d="M41.123 3.90233V3.7072C41.123 2.53642 41.7572 1.80469 42.928 1.80469C44.0988 1.80469 44.5866 2.43886 44.5866 3.56085V4.14624H42.1475C42.1963 4.73163 42.3426 5.02433 42.928 5.02433C43.4646 5.02433 43.5622 4.87798 43.6597 4.58529L44.6354 4.73163C44.489 5.26824 44.0988 5.85363 42.9768 5.85363C41.6109 5.80485 41.123 5.07311 41.123 3.90233ZM42.1963 3.36572H43.6597C43.6597 2.8779 43.5134 2.63399 42.9768 2.63399C42.3914 2.63399 42.245 2.8779 42.1963 3.36572Z" fill="#F9B465"/>
<path d="M47.5625 0H48.5869V5.75633H47.5625V0Z" fill="#F9B465"/>
<path d="M49.5625 4.63407C49.5625 3.80477 50.2455 3.31694 51.9041 3.12181V3.02425C51.9041 2.73155 51.7577 2.63399 51.2699 2.63399C50.8796 2.63399 50.6845 2.78034 50.5869 2.97547L49.6113 2.63399C49.8064 2.19495 50.4406 1.80469 51.3675 1.80469C52.4894 1.80469 52.9285 2.19495 52.9285 3.02425V5.75606H51.9041V5.3658C51.6601 5.6585 51.3674 5.80485 50.7821 5.80485C49.904 5.80485 49.5625 5.31702 49.5625 4.63407ZM51.9041 4.29259V3.85355C51.026 3.9999 50.6357 4.14624 50.6357 4.5365C50.6357 4.8292 50.7821 4.97554 51.1235 4.97554C51.7577 4.97554 51.9041 4.68285 51.9041 4.29259Z" fill="#F9B465"/>
</svg>
