<svg width="84" height="58" viewBox="0 0 84 58" fill="none" xmlns="http://www.w3.org/2000/svg">
<path d="M41.7998 20C47.2998 20 51.7998 15.5 51.7998 10C51.7998 4.5 47.2998 0 41.7998 0C36.2998 0 31.7998 4.5 31.7998 10C31.7998 15.5 36.2998 20 41.7998 20ZM41.7998 7.7C42.9998 7.7 43.9998 8.7 43.9998 9.9C43.9998 11.1 42.9998 12.1 41.7998 12.1C40.5998 12.1 39.5998 11.1 39.5998 9.9C39.5998 8.7 40.5998 7.7 41.7998 7.7Z" fill="#FFB662"/>
<path d="M53.1997 33.0002C53.0997 32.3002 52.9997 28.5002 47.5997 26.8002C42.3997 25.1002 33.9997 22.6002 33.9997 22.6002C33.9997 22.6002 32.5997 22.2002 32.3997 21.1002C32.1997 19.9002 33.7997 19.1002 33.9997 18.9002L34.1997 18.8002L34.0997 18.7002L33.8997 18.8002C33.4997 19.0002 30.1997 20.8002 30.4997 25.0002C30.5997 25.7002 30.6997 29.5002 36.0997 31.2002C41.2997 32.9002 49.6997 35.4002 49.6997 35.4002C49.6997 35.4002 51.0997 35.8002 51.2997 36.9002C51.6997 38.3002 49.6997 39.4002 49.2997 39.6002L48.8997 39.8002L48.9997 40.0002L49.3997 39.8002C49.9997 39.5002 53.4997 37.7002 53.1997 33.0002Z" fill="#FFB662"/>
<path d="M3.3 45.6996H8.5V45.8996C8.5 48.1996 6.5 49.9996 4.3 49.9996C2 49.9996 0 48.1996 0 45.7996C0 43.3996 2 41.5996 4.3 41.5996C6.3 41.5996 7.8 42.9996 8.2 44.0996H6.4C6.1 43.5996 5.3 42.9996 4.3 42.9996C2.5 42.9996 1.6 44.4996 1.6 45.7996C1.6 46.9996 2.5 48.5996 4.4 48.5996C5.4 48.5996 6.3 48.0996 6.8 47.0996H3.3V45.6996Z" fill="#FFB662"/>
<path d="M14.4004 45.7996C14.4004 44.2996 15.6004 42.9996 17.1004 42.9996C18.6004 42.9996 19.8004 44.1996 19.8004 45.7996C19.8004 47.2996 18.6004 48.5996 17.1004 48.5996C15.6004 48.5996 14.4004 47.2996 14.4004 45.7996ZM12.9004 45.7996C12.9004 48.0996 14.8004 49.8996 17.1004 49.8996C19.4004 49.8996 21.3004 48.0996 21.3004 45.7996C21.3004 43.3996 19.4004 41.5996 17.1004 41.5996C14.8004 41.6996 12.9004 43.4996 12.9004 45.7996Z" fill="#FFB662"/>
<path d="M27.8004 46.2998H28.6004C29.9004 46.2998 30.1004 46.9998 30.1004 47.3998C30.1004 48.4998 28.9004 48.4998 28.6004 48.4998H27.9004V46.2998H27.8004ZM26.5004 49.7998H28.6004C29.1004 49.7998 30.1004 49.6998 30.7004 49.2998C31.2004 48.9998 31.7004 48.3998 31.7004 47.3998C31.7004 45.9998 30.9004 45.5998 30.3004 45.3998C30.5004 45.2998 31.2004 44.8998 31.2004 43.8998C31.2004 43.2998 30.9004 42.7998 30.5004 42.3998C29.8004 41.7998 28.9004 41.7998 28.0004 41.7998H26.4004V49.7998H26.5004ZM27.8004 43.1998H28.4004C29.2004 43.1998 29.5004 43.5998 29.5004 44.0998C29.5004 44.9998 28.6004 44.9998 28.2004 44.9998H27.7004V43.1998H27.8004Z" fill="#FFB662"/>
<path d="M37.7998 41.7998H42.0998V43.1998H39.2998V45.1998H41.9998V46.5998H39.2998V48.4998H42.0998V49.8998H37.7998V41.7998Z" fill="#FFB662"/>
<path d="M48.2998 41.7998H49.7998V48.3998H52.1998V49.7998H48.2998V41.7998Z" fill="#FFB662"/>
<path d="M58 41.7998H59.5V49.7998H58V41.7998Z" fill="#FFB662"/>
<path d="M66.2002 41.7998H67.9002L71.2002 47.5998V41.7998H72.7002V49.7998H71.0002L67.7002 43.9998V49.7998H66.2002V41.7998Z" fill="#FFB662"/>
<path d="M78.5 47.5C78.6 49.3 80.1 49.9 81.1 49.9C82.4 49.9 83.7 49.1 83.7 47.3C83.7 45.6 82.3 45.1 81.6 44.8C80.8 44.5 80.3 44.4 80.3 43.7C80.3 43.2 80.7 42.9 81.1 42.9C81.5 42.9 81.9 43.1 82 43.8H83.5C83.4 42.2 82.1 41.5 81.1 41.5C79.8 41.5 78.8 42.5 78.8 43.8C78.8 45.5 80.1 45.9 80.7 46.1C81.7 46.5 82.2 46.6 82.2 47.4C82.2 48 81.7 48.4 81.1 48.4C80.6 48.4 80.1 48.1 80 47.3H78.5V47.5Z" fill="#FFB662"/>
<path d="M18 55.0006C18 53.7006 19.1 52.7006 20.3 52.7006C21.6 52.7006 22.6 53.7006 22.6 55.0006C22.6 56.3006 21.5 57.3006 20.3 57.3006C19 57.3006 18 56.2006 18 55.0006ZM17.5 55.0006C17.5 56.5006 18.8 57.7006 20.3 57.7006C21.8 57.7006 23.1 56.5006 23.1 54.9006C23.1 53.3006 21.8 52.1006 20.3 52.1006C18.9 52.2006 17.5 53.3006 17.5 55.0006Z" fill="#FFB662"/>
<path d="M0.0996094 52.3008H0.599609V57.2008H2.79961V57.7008H0.0996094V52.3008Z" fill="#FFB662"/>
<path d="M3.7 52.3008H4.3L3.5 53.9008H3L3.7 52.3008Z" fill="#FFB662"/>
<path d="M6.2998 52.3008H9.1998V52.8008H6.7998V54.7008H9.0998V55.2008H6.7998V57.2008H9.1998V57.7008H6.2998V52.3008ZM8.2998 50.8008L8.4998 51.2008L7.0998 52.0008L6.8998 51.6008L8.2998 50.8008Z" fill="#FFB662"/>
<path d="M16.3 56.2006C15.7 57.2006 14.7 57.7006 13.8 57.7006C12.3 57.7006 11 56.5006 11 54.9006C11 53.3006 12.3 52.1006 13.8 52.1006C15.2 52.1006 16 53.1006 16.3 53.6006H15.7C15.1 52.7006 14.2 52.6006 13.8 52.6006C12.5 52.6006 11.6 53.7006 11.6 54.9006C11.6 56.2006 12.7 57.2006 13.9 57.2006C14.2 57.2006 15 57.2006 15.8 56.2006H16.3Z" fill="#FFB662"/>
<path d="M24.9004 52.3008H25.4004V57.2008H27.6004V57.7008H24.9004V52.3008Z" fill="#FFB662"/>
<path d="M29.5 52.3008H32.4V52.8008H30V54.7008H32.3V55.2008H30V57.2008H32.4V57.7008H29.5V52.3008Z" fill="#FFB662"/>
<path d="M36.9004 52.801H37.7004C38.5004 52.801 39.0004 52.901 39.5004 53.201C40.1004 53.601 40.4004 54.301 40.4004 55.001C40.4004 55.901 39.9004 56.501 39.6004 56.801C39.0004 57.201 38.2004 57.201 37.8004 57.201H37.0004V52.801H36.9004ZM36.4004 57.701H38.0004C38.7004 57.701 39.3004 57.501 39.7004 57.301C40.7004 56.701 40.9004 55.601 40.9004 55.101C40.9004 54.501 40.6004 53.401 39.7004 52.901C39.3004 52.601 38.6004 52.501 38.0004 52.501H36.4004V57.701Z" fill="#FFB662"/>
<path d="M43 52.3008H45.9V52.8008H43.5V54.7008H45.8V55.2008H43.5V57.2008H45.9V57.7008H43V52.3008Z" fill="#FFB662"/>
<path d="M49.7998 52.3008H50.2998V57.2008H52.4998V57.7008H49.7998V52.3008Z" fill="#FFB662"/>
<path d="M53.4998 52.3008H54.0998L53.2998 53.9008H52.7998L53.4998 52.3008Z" fill="#FFB662"/>
<path d="M56.2002 52.2998H56.7002V57.5998H56.2002V52.2998Z" fill="#FFB662"/>
<path d="M59.5 52.2998H60.3L62.2 56.8998L64.2 52.2998H65V57.5998H64.5V52.8998L62.5 57.6998H62L60 52.8998V57.6998H59.5V52.2998Z" fill="#FFB662"/>
<path d="M69.5004 52.9004L70.5004 55.4004H68.4004L69.5004 52.9004ZM66.9004 57.7004H67.5004L68.3004 55.9004H70.8004L71.6004 57.7004H72.2004L69.9004 52.4004H69.3004L66.9004 57.7004Z" fill="#FFB662"/>
<path d="M78.9998 55.2002C78.8998 56.8002 77.4998 57.8002 76.1998 57.8002C74.5998 57.8002 73.2998 56.5002 73.2998 55.0002C73.2998 53.6002 74.3998 52.2002 76.1998 52.2002C77.5998 52.2002 78.4998 53.2002 78.6998 53.7002H78.0998C77.7998 53.2002 77.0998 52.7002 76.1998 52.7002C74.7998 52.7002 73.8998 53.8002 73.8998 55.0002C73.8998 56.2002 74.8998 57.3002 76.2998 57.3002C77.3998 57.3002 78.2998 56.5002 78.4998 55.7002H75.4998V55.2002H78.9998Z" fill="#FFB662"/>
<path d="M80.7002 52.2998H83.6002V52.7998H81.2002V54.6998H83.5002V55.1998H81.2002V57.1998H83.6002V57.6998H80.7002V52.2998Z" fill="#FFB662"/>
</svg>
