<svg width="25" height="25" viewBox="0 0 25 25" fill="none" xmlns="http://www.w3.org/2000/svg">
<rect x="0.5" y="0.5" width="24" height="24" rx="4.5" stroke="#FFB662"/>
<path d="M16.7281 17H11.8681C11.2521 17 10.6801 16.892 10.1521 16.676C9.63209 16.46 9.18009 16.16 8.79609 15.776C8.41209 15.384 8.11209 14.924 7.89609 14.396C7.68009 13.86 7.57209 13.276 7.57209 12.644C7.57209 12.012 7.68009 11.432 7.89609 10.904C8.11209 10.368 8.41209 9.908 8.79609 9.524C9.18009 9.132 9.63209 8.828 10.1521 8.612C10.6801 8.396 11.2521 8.288 11.8681 8.288C12.4761 8.288 13.0401 8.396 13.5601 8.612C14.0881 8.828 14.5441 9.132 14.9281 9.524C15.3121 9.908 15.6121 10.368 15.8281 10.904C16.0441 11.432 16.1521 12.012 16.1521 12.644C16.1521 13.412 15.9921 14.104 15.6721 14.72C15.3601 15.328 14.8561 15.816 14.1601 16.184V16.208H16.7281V17ZM8.50809 12.644C8.50809 13.116 8.58409 13.568 8.73609 14C8.88809 14.424 9.10809 14.8 9.39609 15.128C9.68409 15.456 10.0361 15.72 10.4521 15.92C10.8681 16.112 11.3401 16.208 11.8681 16.208C12.3881 16.208 12.8561 16.112 13.2721 15.92C13.6881 15.72 14.0401 15.456 14.3281 15.128C14.6161 14.8 14.8361 14.424 14.9881 14C15.1401 13.568 15.2161 13.116 15.2161 12.644C15.2161 12.172 15.1401 11.724 14.9881 11.3C14.8361 10.868 14.6161 10.488 14.3281 10.16C14.0401 9.832 13.6881 9.572 13.2721 9.38C12.8561 9.18 12.3881 9.08 11.8681 9.08C11.3401 9.08 10.8681 9.18 10.4521 9.38C10.0361 9.572 9.68409 9.832 9.39609 10.16C9.10809 10.488 8.88809 10.868 8.73609 11.3C8.58409 11.724 8.50809 12.172 8.50809 12.644Z" fill="#FFB662"/>
</svg>
