<svg width="25" height="25" viewBox="0 0 25 25" fill="none" xmlns="http://www.w3.org/2000/svg">
<rect x="0.5" y="0.5" width="24" height="24" rx="4.5" stroke="#FFB662"/>
<path d="M13.838 9.908C13.462 9.356 12.914 9.08 12.194 9.08C11.97 9.08 11.75 9.112 11.534 9.176C11.318 9.232 11.122 9.324 10.946 9.452C10.778 9.572 10.642 9.732 10.538 9.932C10.434 10.124 10.382 10.352 10.382 10.616C10.382 11 10.49 11.3 10.706 11.516C10.922 11.724 11.19 11.896 11.51 12.032C11.83 12.168 12.178 12.292 12.554 12.404C12.938 12.508 13.29 12.652 13.61 12.836C13.93 13.012 14.198 13.248 14.414 13.544C14.63 13.84 14.738 14.244 14.738 14.756C14.738 15.14 14.654 15.488 14.486 15.8C14.326 16.104 14.11 16.36 13.838 16.568C13.574 16.776 13.274 16.936 12.938 17.048C12.61 17.16 12.278 17.216 11.942 17.216C11.422 17.216 10.926 17.12 10.454 16.928C9.99002 16.728 9.59402 16.404 9.26602 15.956L10.046 15.392C10.23 15.704 10.486 15.956 10.814 16.148C11.142 16.332 11.53 16.424 11.978 16.424C12.194 16.424 12.41 16.392 12.626 16.328C12.842 16.256 13.034 16.156 13.202 16.028C13.378 15.892 13.522 15.728 13.634 15.536C13.746 15.344 13.802 15.124 13.802 14.876C13.802 14.58 13.738 14.336 13.61 14.144C13.49 13.944 13.326 13.78 13.118 13.652C12.918 13.516 12.686 13.404 12.422 13.316C12.166 13.228 11.898 13.14 11.618 13.052C11.346 12.964 11.078 12.864 10.814 12.752C10.558 12.64 10.326 12.5 10.118 12.332C9.91802 12.156 9.75402 11.94 9.62602 11.684C9.50602 11.42 9.44602 11.092 9.44602 10.7C9.44602 10.292 9.52202 9.936 9.67402 9.632C9.83402 9.328 10.042 9.076 10.298 8.876C10.562 8.676 10.858 8.528 11.186 8.432C11.514 8.336 11.85 8.288 12.194 8.288C12.674 8.288 13.11 8.364 13.502 8.516C13.894 8.668 14.258 8.936 14.594 9.32L13.838 9.908Z" fill="#FFB662"/>
</svg>
