<svg width="25" height="25" viewBox="0 0 25 25" fill="none" xmlns="http://www.w3.org/2000/svg">
<rect x="0.5" y="0.5" width="24" height="24" rx="4.5" stroke="#FFB662"/>
<path d="M9.44873 16.208H11.1287C11.7767 16.208 12.3367 16.112 12.8087 15.92C13.2887 15.72 13.6847 15.46 13.9967 15.14C14.3167 14.812 14.5527 14.444 14.7047 14.036C14.8567 13.62 14.9327 13.192 14.9327 12.752C14.9327 12.312 14.8567 11.888 14.7047 11.48C14.5527 11.064 14.3167 10.696 13.9967 10.376C13.6847 10.048 13.2887 9.788 12.8087 9.596C12.3367 9.396 11.7767 9.296 11.1287 9.296H9.44873V16.208ZM8.58473 8.504H11.4047C11.9327 8.504 12.4607 8.592 12.9887 8.768C13.5247 8.944 14.0047 9.212 14.4287 9.572C14.8607 9.924 15.2087 10.368 15.4727 10.904C15.7367 11.432 15.8687 12.048 15.8687 12.752C15.8687 13.464 15.7367 14.084 15.4727 14.612C15.2087 15.14 14.8607 15.584 14.4287 15.944C14.0047 16.296 13.5247 16.56 12.9887 16.736C12.4607 16.912 11.9327 17 11.4047 17H8.58473V8.504Z" fill="#FFB662"/>
</svg>
