{
    "asset" : {
        "generator" : "Khronos glTF Blender I/O v1.4.40",
        "version" : "2.0"
    },
    "scene" : 0,
    "scenes" : [
        {
            "name" : "Scene",
            "nodes" : [
                0,
                1
            ]
        }
    ],
    "nodes" : [
        {
            "mesh" : 0,
            "name" : "arbre",
            "translation" : [
                3.503267288208008,
                1.1629936695098877,
                -3.4369401931762695
            ]
        },
        {
            "mesh" : 1,
            "name" : "cailloux",
            "rotation" : [
                0.202123761177063,
                -0.8226690888404846,
                0.008235381916165352,
                0.5313132405281067
            ],
            "translation" : [
                -2.2399516105651855,
                0.055286914110183716,
                -1.3954969644546509
            ]
        }
    ],
    "materials" : [
        {
            "doubleSided" : true,
            "name" : "Texture_cailloux_arbre_bake",
            "pbrMetallicRoughness" : {
                "baseColorTexture" : {
                    "index" : 0,
                    "texCoord" : 0
                },
                "metallicFactor" : 0,
                "roughnessFactor" : 0.5
            }
        }
    ],
    "meshes" : [
        {
            "name" : "Plane.095",
            "primitives" : [
                {
                    "attributes" : {
                        "POSITION" : 0,
                        "NORMAL" : 1,
                        "TEXCOORD_0" : 2
                    },
                    "indices" : 3,
                    "material" : 0
                }
            ]
        },
        {
            "name" : "Plane.096",
            "primitives" : [
                {
                    "attributes" : {
                        "POSITION" : 4,
                        "NORMAL" : 5,
                        "TEXCOORD_0" : 6,
                        "COLOR_0" : 7
                    },
                    "indices" : 8,
                    "material" : 0
                }
            ]
        }
    ],
    "textures" : [
        {
            "sampler" : 0,
            "source" : 0
        }
    ],
    "images" : [
        {
            "mimeType" : "image/png",
            "name" : "Texture_Cailloux_Arbre",
            "uri" : "Texture_Cailloux_Arbre.png"
        }
    ],
    "accessors" : [
        {
            "bufferView" : 0,
            "componentType" : 5126,
            "count" : 595,
            "max" : [
                0.4843800961971283,
                0.7727707624435425,
                0.4893812835216522
            ],
            "min" : [
                -0.49600949883461,
                -0.7182239294052124,
                -0.4886314868927002
            ],
            "type" : "VEC3"
        },
        {
            "bufferView" : 1,
            "componentType" : 5126,
            "count" : 595,
            "type" : "VEC3"
        },
        {
            "bufferView" : 2,
            "componentType" : 5126,
            "count" : 595,
            "type" : "VEC2"
        },
        {
            "bufferView" : 3,
            "componentType" : 5123,
            "count" : 891,
            "type" : "SCALAR"
        },
        {
            "bufferView" : 4,
            "componentType" : 5126,
            "count" : 343,
            "max" : [
                0.41376423835754395,
                0.17536719143390656,
                -0.3035491704940796
            ],
            "min" : [
                -5.124061107635498,
                -3.0853004455566406,
                -4.739862442016602
            ],
            "type" : "VEC3"
        },
        {
            "bufferView" : 5,
            "componentType" : 5126,
            "count" : 343,
            "type" : "VEC3"
        },
        {
            "bufferView" : 6,
            "componentType" : 5126,
            "count" : 343,
            "type" : "VEC2"
        },
        {
            "bufferView" : 7,
            "componentType" : 5123,
            "count" : 343,
            "normalized" : true,
            "type" : "VEC4"
        },
        {
            "bufferView" : 8,
            "componentType" : 5123,
            "count" : 507,
            "type" : "SCALAR"
        }
    ],
    "bufferViews" : [
        {
            "buffer" : 0,
            "byteLength" : 7140,
            "byteOffset" : 0
        },
        {
            "buffer" : 0,
            "byteLength" : 7140,
            "byteOffset" : 7140
        },
        {
            "buffer" : 0,
            "byteLength" : 4760,
            "byteOffset" : 14280
        },
        {
            "buffer" : 0,
            "byteLength" : 1782,
            "byteOffset" : 19040
        },
        {
            "buffer" : 0,
            "byteLength" : 4116,
            "byteOffset" : 20824
        },
        {
            "buffer" : 0,
            "byteLength" : 4116,
            "byteOffset" : 24940
        },
        {
            "buffer" : 0,
            "byteLength" : 2744,
            "byteOffset" : 29056
        },
        {
            "buffer" : 0,
            "byteLength" : 2744,
            "byteOffset" : 31800
        },
        {
            "buffer" : 0,
            "byteLength" : 1014,
            "byteOffset" : 34544
        }
    ],
    "samplers" : [
        {
            "magFilter" : 9729,
            "minFilter" : 9986
        }
    ],
    "buffers" : [
        {
            "byteLength" : 35560,
            "uri" : "cailloux_arbre.bin"
        }
    ]
}
