<?xml version="1.0" encoding="utf-8"?>
<!-- Generator: Adobe Illustrator 25.2.3, SVG Export Plug-In . SVG Version: 6.00 Build 0)  -->
<svg version="1.0"
	 id="svg2" xmlns:cc="http://creativecommons.org/ns#" xmlns:dc="http://purl.org/dc/elements/1.1/" xmlns:rdf="http://www.w3.org/1999/02/22-rdf-syntax-ns#" xmlns:svg="http://www.w3.org/2000/svg"
	 xmlns="http://www.w3.org/2000/svg" xmlns:xlink="http://www.w3.org/1999/xlink" x="0px" y="0px" viewBox="0 0 1921 987"
	 enable-background="new 0 0 1921 987" xml:space="preserve">
<path d="M796.6,1243.3L837.4,989l-182.9-36.2l-204.6,99.2l-173.4-67.8l-31.3,70.2l-510.5,12.2l-14.5-213l556.2,9.6l134.9,62.9
	l192.5-72.5l221.6,19.3l10.3-250.4c0.9-21.9-16.5-40.1-38.2-40.1h-1554l16.8,660.9H796.6z"/>
<path d="M1068.6,1243.3h1651.7V609L1058,583.1c-22-0.3-38.9,19.5-35.2,41.3l55.4,323.6l313.1-99.2l163.6,46l183.1-7.3l-4.9,152.5
	l-195-12l-149.3-63.1l-303.3,99.2L1068.6,1243.3z"/>
</svg>
