{
    "asset" : {
        "generator" : "Khronos glTF Blender I/O v1.4.40",
        "version" : "2.0"
    },
    "scene" : 0,
    "scenes" : [
        {
            "name" : "Scene",
            "nodes" : [
                0
            ]
        }
    ],
    "nodes" : [
        {
            "mesh" : 0,
            "name" : "feu",
            "translation" : [
                -0.06887152045965195,
                0.018023010343313217,
                0.031737007200717926
            ]
        }
    ],
    "animations" : [
        {
            "channels" : [
                {
                    "sampler" : 0,
                    "target" : {
                        "node" : 0,
                        "path" : "weights"
                    }
                }
            ],
            "name" : "KeyAction",
            "samplers" : [
                {
                    "input" : 14,
                    "interpolation" : "LINEAR",
                    "output" : 15
                }
            ]
        }
    ],
    "meshes" : [
        {
            "extras" : {
                "targetNames" : [
                    "Key 1",
                    "Key 2",
                    "Key 3",
                    "Key 4",
                    "Key 5"
                ]
            },
            "name" : "Plane.007",
            "primitives" : [
                {
                    "attributes" : {
                        "POSITION" : 0,
                        "NORMAL" : 1,
                        "TEXCOORD_0" : 2
                    },
                    "indices" : 3,
                    "targets" : [
                        {
                            "POSITION" : 4,
                            "NORMAL" : 5
                        },
                        {
                            "POSITION" : 6,
                            "NORMAL" : 7
                        },
                        {
                            "POSITION" : 8,
                            "NORMAL" : 9
                        },
                        {
                            "POSITION" : 10,
                            "NORMAL" : 11
                        },
                        {
                            "POSITION" : 12,
                            "NORMAL" : 13
                        }
                    ]
                }
            ],
            "weights" : [
                0,
                0,
                0,
                0,
                0
            ]
        }
    ],
    "accessors" : [
        {
            "bufferView" : 0,
            "componentType" : 5126,
            "count" : 78,
            "max" : [
                0.9198794960975647,
                1.325538992881775,
                0.15983286499977112
            ],
            "min" : [
                -0.9561659097671509,
                -0.019811134785413742,
                -0.2043641358613968
            ],
            "type" : "VEC3"
        },
        {
            "bufferView" : 1,
            "componentType" : 5126,
            "count" : 78,
            "type" : "VEC3"
        },
        {
            "bufferView" : 2,
            "componentType" : 5126,
            "count" : 78,
            "type" : "VEC2"
        },
        {
            "bufferView" : 3,
            "componentType" : 5123,
            "count" : 114,
            "type" : "SCALAR"
        },
        {
            "bufferView" : 4,
            "componentType" : 5126,
            "count" : 78,
            "max" : [
                0.1517897993326187,
                0.739139199256897,
                0.004947856068611145
            ],
            "min" : [
                -0.16884946823120117,
                -0.061780333518981934,
                0
            ],
            "type" : "VEC3"
        },
        {
            "bufferView" : 5,
            "componentType" : 5126,
            "count" : 78,
            "type" : "VEC3"
        },
        {
            "bufferView" : 6,
            "componentType" : 5126,
            "count" : 78,
            "max" : [
                0.7618287801742554,
                1.1485655307769775,
                0.01717352867126465
            ],
            "min" : [
                -0.5201107859611511,
                -0.39307719469070435,
                -0.01717323064804077
            ],
            "type" : "VEC3"
        },
        {
            "bufferView" : 7,
            "componentType" : 5126,
            "count" : 78,
            "type" : "VEC3"
        },
        {
            "bufferView" : 8,
            "componentType" : 5126,
            "count" : 78,
            "max" : [
                0.8327891230583191,
                1.2426447868347168,
                0.008210152387619019
            ],
            "min" : [
                -0.3074464201927185,
                -0.9629877209663391,
                -0.005055233836174011
            ],
            "type" : "VEC3"
        },
        {
            "bufferView" : 9,
            "componentType" : 5126,
            "count" : 78,
            "type" : "VEC3"
        },
        {
            "bufferView" : 10,
            "componentType" : 5126,
            "count" : 78,
            "max" : [
                0.2160722315311432,
                0.527198314666748,
                0.017570704221725464
            ],
            "min" : [
                -0.2392534613609314,
                -0.8144768476486206,
                -0.0054471250623464584
            ],
            "type" : "VEC3"
        },
        {
            "bufferView" : 11,
            "componentType" : 5126,
            "count" : 78,
            "type" : "VEC3"
        },
        {
            "bufferView" : 12,
            "componentType" : 5126,
            "count" : 78,
            "max" : [
                0.25029924511909485,
                0.3278568387031555,
                1.9708648324012756e-05
            ],
            "min" : [
                -0.321476548910141,
                -0.475982666015625,
                -2.2202730178833008e-05
            ],
            "type" : "VEC3"
        },
        {
            "bufferView" : 13,
            "componentType" : 5126,
            "count" : 78,
            "type" : "VEC3"
        },
        {
            "bufferView" : 14,
            "componentType" : 5126,
            "count" : 6,
            "max" : [
                0.6666666666666666
            ],
            "min" : [
                0.1111111111111111
            ],
            "type" : "SCALAR"
        },
        {
            "bufferView" : 15,
            "componentType" : 5126,
            "count" : 30,
            "type" : "SCALAR"
        }
    ],
    "bufferViews" : [
        {
            "buffer" : 0,
            "byteLength" : 936,
            "byteOffset" : 0
        },
        {
            "buffer" : 0,
            "byteLength" : 936,
            "byteOffset" : 936
        },
        {
            "buffer" : 0,
            "byteLength" : 624,
            "byteOffset" : 1872
        },
        {
            "buffer" : 0,
            "byteLength" : 228,
            "byteOffset" : 2496
        },
        {
            "buffer" : 0,
            "byteLength" : 936,
            "byteOffset" : 2724
        },
        {
            "buffer" : 0,
            "byteLength" : 936,
            "byteOffset" : 3660
        },
        {
            "buffer" : 0,
            "byteLength" : 936,
            "byteOffset" : 4596
        },
        {
            "buffer" : 0,
            "byteLength" : 936,
            "byteOffset" : 5532
        },
        {
            "buffer" : 0,
            "byteLength" : 936,
            "byteOffset" : 6468
        },
        {
            "buffer" : 0,
            "byteLength" : 936,
            "byteOffset" : 7404
        },
        {
            "buffer" : 0,
            "byteLength" : 936,
            "byteOffset" : 8340
        },
        {
            "buffer" : 0,
            "byteLength" : 936,
            "byteOffset" : 9276
        },
        {
            "buffer" : 0,
            "byteLength" : 936,
            "byteOffset" : 10212
        },
        {
            "buffer" : 0,
            "byteLength" : 936,
            "byteOffset" : 11148
        },
        {
            "buffer" : 0,
            "byteLength" : 24,
            "byteOffset" : 12084
        },
        {
            "buffer" : 0,
            "byteLength" : 120,
            "byteOffset" : 12108
        }
    ],
    "buffers" : [
        {
            "byteLength" : 12228,
            "uri" : "feu.bin"
        }
    ]
}
