{
    "asset" : {
        "generator" : "Khronos glTF Blender I/O v1.4.40",
        "version" : "2.0"
    },
    "scene" : 0,
    "scenes" : [
        {
            "name" : "Scene",
            "nodes" : [
                0,
                1,
                2,
                3
            ]
        }
    ],
    "nodes" : [
        {
            "mesh" : 0,
            "name" : "soleil",
            "rotation" : [
                0.39741748571395874,
                -0.5864222645759583,
                -0.5830875635147095,
                0.3977149426937103
            ],
            "scale" : [
                -0.17033234238624573,
                -0.17033226788043976,
                -0.17033228278160095
            ],
            "translation" : [
                0.15434139966964722,
                2.6956324577331543,
                -0.9981393814086914
            ]
        },
        {
            "mesh" : 1,
            "name" : "temple",
            "rotation" : [
                0,
                1,
                0,
                -4.371138828673793e-08
            ],
            "scale" : [
                0.789193868637085,
                0.8105730414390564,
                0.789193868637085
            ],
            "translation" : [
                -0.46934443712234497,
                0.22059442102909088,
                -2.315548896789551
            ]
        },
        {
            "mesh" : 2,
            "name" : "fenetreLumineuse",
            "scale" : [
                0.0960262268781662,
                0.0960262268781662,
                0.0960262268781662
            ],
            "translation" : [
                -1.2781834602355957,
                2.1564860343933105,
                -0.4872879385948181
            ]
        },
        {
            "mesh" : 3,
            "name" : "interieureporte",
            "rotation" : [
                0.19434532523155212,
                0,
                0,
                0.9809331893920898
            ],
            "scale" : [
                0.6570747494697571,
                0.6570747494697571,
                0.6570747494697571
            ],
            "translation" : [
                0.14743328094482422,
                0.42892634868621826,
                -0.42450711131095886
            ]
        }
    ],
    "materials" : [
        {
            "doubleSided" : true,
            "emissiveFactor" : [
                1,
                1,
                1
            ],
            "emissiveTexture" : {
                "index" : 0,
                "texCoord" : 0
            },
            "name" : "texturesoleil",
            "pbrMetallicRoughness" : {}
        },
        {
            "doubleSided" : true,
            "emissiveFactor" : [
                1,
                1,
                1
            ],
            "emissiveTexture" : {
                "index" : 1,
                "texCoord" : 0
            },
            "name" : "textureTemple",
            "pbrMetallicRoughness" : {}
        },
        {
            "doubleSided" : true,
            "emissiveFactor" : [
                1,
                0.6618557274341583,
                0.21976402401924133
            ],
            "name" : "feu",
            "pbrMetallicRoughness" : {}
        }
    ],
    "meshes" : [
        {
            "name" : "Plane.056",
            "primitives" : [
                {
                    "attributes" : {
                        "POSITION" : 0,
                        "NORMAL" : 1,
                        "TEXCOORD_0" : 2
                    },
                    "indices" : 3,
                    "material" : 0
                }
            ]
        },
        {
            "name" : "Plane.029",
            "primitives" : [
                {
                    "attributes" : {
                        "POSITION" : 4,
                        "NORMAL" : 5,
                        "TEXCOORD_0" : 6
                    },
                    "indices" : 7,
                    "material" : 1
                }
            ]
        },
        {
            "name" : "Cube.003",
            "primitives" : [
                {
                    "attributes" : {
                        "POSITION" : 8,
                        "NORMAL" : 9,
                        "TEXCOORD_0" : 10
                    },
                    "indices" : 11,
                    "material" : 2
                }
            ]
        },
        {
            "name" : "Cube.004",
            "primitives" : [
                {
                    "attributes" : {
                        "POSITION" : 12,
                        "NORMAL" : 13,
                        "TEXCOORD_0" : 14
                    },
                    "indices" : 11,
                    "material" : 2
                }
            ]
        }
    ],
    "textures" : [
        {
            "sampler" : 0,
            "source" : 0
        },
        {
            "sampler" : 0,
            "source" : 1
        }
    ],
    "images" : [
        {
            "mimeType" : "image/png",
            "name" : "TextureSoleil",
            "uri" : "TextureSoleil.png"
        },
        {
            "mimeType" : "image/png",
            "name" : "TextureTemple2",
            "uri" : "TextureTemple2.png"
        }
    ],
    "accessors" : [
        {
            "bufferView" : 0,
            "componentType" : 5126,
            "count" : 376,
            "max" : [
                2.446368932723999,
                0.21121396124362946,
                2.305544376373291
            ],
            "min" : [
                -2.5880188941955566,
                -0.14506104588508606,
                -2.5061473846435547
            ],
            "type" : "VEC3"
        },
        {
            "bufferView" : 1,
            "componentType" : 5126,
            "count" : 376,
            "type" : "VEC3"
        },
        {
            "bufferView" : 2,
            "componentType" : 5126,
            "count" : 376,
            "type" : "VEC2"
        },
        {
            "bufferView" : 3,
            "componentType" : 5123,
            "count" : 564,
            "type" : "SCALAR"
        },
        {
            "bufferView" : 4,
            "componentType" : 5126,
            "count" : 14417,
            "max" : [
                2.537583351135254,
                4.458433628082275,
                0.2969695031642914
            ],
            "min" : [
                -2.9706783294677734,
                -0.20237649977207184,
                -2.711160659790039
            ],
            "type" : "VEC3"
        },
        {
            "bufferView" : 5,
            "componentType" : 5126,
            "count" : 14417,
            "type" : "VEC3"
        },
        {
            "bufferView" : 6,
            "componentType" : 5126,
            "count" : 14417,
            "type" : "VEC2"
        },
        {
            "bufferView" : 7,
            "componentType" : 5123,
            "count" : 22242,
            "type" : "SCALAR"
        },
        {
            "bufferView" : 8,
            "componentType" : 5126,
            "count" : 4,
            "max" : [
                0.5153487920761108,
                1.4779834747314453,
                -1.936152696609497
            ],
            "min" : [
                -0.4038739800453186,
                -1,
                -1.936152696609497
            ],
            "type" : "VEC3"
        },
        {
            "bufferView" : 9,
            "componentType" : 5126,
            "count" : 4,
            "type" : "VEC3"
        },
        {
            "bufferView" : 10,
            "componentType" : 5126,
            "count" : 4,
            "type" : "VEC2"
        },
        {
            "bufferView" : 11,
            "componentType" : 5123,
            "count" : 6,
            "type" : "SCALAR"
        },
        {
            "bufferView" : 12,
            "componentType" : 5126,
            "count" : 4,
            "max" : [
                0.4385855793952942,
                2.1590170860290527,
                0.0001977086067199707
            ],
            "min" : [
                -0.48063719272613525,
                -0.10483407974243164,
                -0.9261084198951721
            ],
            "type" : "VEC3"
        },
        {
            "bufferView" : 13,
            "componentType" : 5126,
            "count" : 4,
            "type" : "VEC3"
        },
        {
            "bufferView" : 14,
            "componentType" : 5126,
            "count" : 4,
            "type" : "VEC2"
        }
    ],
    "bufferViews" : [
        {
            "buffer" : 0,
            "byteLength" : 4512,
            "byteOffset" : 0
        },
        {
            "buffer" : 0,
            "byteLength" : 4512,
            "byteOffset" : 4512
        },
        {
            "buffer" : 0,
            "byteLength" : 3008,
            "byteOffset" : 9024
        },
        {
            "buffer" : 0,
            "byteLength" : 1128,
            "byteOffset" : 12032
        },
        {
            "buffer" : 0,
            "byteLength" : 173004,
            "byteOffset" : 13160
        },
        {
            "buffer" : 0,
            "byteLength" : 173004,
            "byteOffset" : 186164
        },
        {
            "buffer" : 0,
            "byteLength" : 115336,
            "byteOffset" : 359168
        },
        {
            "buffer" : 0,
            "byteLength" : 44484,
            "byteOffset" : 474504
        },
        {
            "buffer" : 0,
            "byteLength" : 48,
            "byteOffset" : 518988
        },
        {
            "buffer" : 0,
            "byteLength" : 48,
            "byteOffset" : 519036
        },
        {
            "buffer" : 0,
            "byteLength" : 32,
            "byteOffset" : 519084
        },
        {
            "buffer" : 0,
            "byteLength" : 12,
            "byteOffset" : 519116
        },
        {
            "buffer" : 0,
            "byteLength" : 48,
            "byteOffset" : 519128
        },
        {
            "buffer" : 0,
            "byteLength" : 48,
            "byteOffset" : 519176
        },
        {
            "buffer" : 0,
            "byteLength" : 32,
            "byteOffset" : 519224
        }
    ],
    "samplers" : [
        {
            "magFilter" : 9729,
            "minFilter" : 9986
        }
    ],
    "buffers" : [
        {
            "byteLength" : 519256,
            "uri" : "temple.bin"
        }
    ]
}
