{
    "asset" : {
        "generator" : "Khronos glTF Blender I/O v1.4.40",
        "version" : "2.0"
    },
    "extensionsUsed" : [
        "KHR_materials_transmission"
    ],
    "scene" : 0,
    "scenes" : [
        {
            "name" : "Scene",
            "nodes" : [
                0
            ]
        }
    ],
    "nodes" : [
        {
            "mesh" : 0,
            "name" : "Cube.011",
            "scale" : [
                2.173368453979492,
                0.7475255131721497,
                2.0918664932250977
            ],
            "translation" : [
                0,
                0.7383745312690735,
                0.40014219284057617
            ]
        }
    ],
    "materials" : [
        {
            "doubleSided" : true,
            "name" : "sandsocle",
            "pbrMetallicRoughness" : {
                "metallicFactor" : 0,
                "roughnessFactor" : 0.5
            }
        },
        {
            "doubleSided" : true,
            "extensions" : {
                "KHR_materials_transmission" : {
                    "transmissionFactor" : 1
                }
            },
            "name" : "brasier",
            "pbrMetallicRoughness" : {
                "metallicFactor" : 0.6272727251052856,
                "roughnessFactor" : 0.5272727012634277
            }
        },
        {
            "doubleSided" : true,
            "name" : "fenetre",
            "pbrMetallicRoughness" : {
                "metallicFactor" : 0,
                "roughnessFactor" : 0.5
            }
        },
        {
            "doubleSided" : true,
            "name" : "megastone",
            "pbrMetallicRoughness" : {
                "metallicFactor" : 0,
                "roughnessFactor" : 0.5
            }
        },
        {
            "doubleSided" : true,
            "emissiveFactor" : [
                1,
                1,
                0.5127826528504613
            ],
            "name" : "feu",
            "pbrMetallicRoughness" : {}
        },
        {
            "doubleSided" : true,
            "name" : "gold",
            "pbrMetallicRoughness" : {
                "baseColorFactor" : [
                    0.6266627311706543,
                    0.3054486811161041,
                    0.12754246592521667,
                    1
                ],
                "metallicFactor" : 0.7318177819252014,
                "roughnessFactor" : 0.3272727131843567
            }
        }
    ],
    "meshes" : [
        {
            "name" : "Cube.003",
            "primitives" : [
                {
                    "attributes" : {
                        "POSITION" : 0,
                        "NORMAL" : 1,
                        "TEXCOORD_0" : 2
                    },
                    "indices" : 3,
                    "material" : 0
                },
                {
                    "attributes" : {
                        "POSITION" : 4,
                        "NORMAL" : 5,
                        "TEXCOORD_0" : 6
                    },
                    "indices" : 7,
                    "material" : 1
                },
                {
                    "attributes" : {
                        "POSITION" : 8,
                        "NORMAL" : 9,
                        "TEXCOORD_0" : 10
                    },
                    "indices" : 11,
                    "material" : 2
                },
                {
                    "attributes" : {
                        "POSITION" : 12,
                        "NORMAL" : 13,
                        "TEXCOORD_0" : 14
                    },
                    "indices" : 15,
                    "material" : 3
                },
                {
                    "attributes" : {
                        "POSITION" : 16,
                        "NORMAL" : 17,
                        "TEXCOORD_0" : 18
                    },
                    "indices" : 19,
                    "material" : 4
                },
                {
                    "attributes" : {
                        "POSITION" : 20,
                        "NORMAL" : 21,
                        "TEXCOORD_0" : 22
                    },
                    "indices" : 23,
                    "material" : 5
                }
            ]
        }
    ],
    "accessors" : [
        {
            "bufferView" : 0,
            "componentType" : 5126,
            "count" : 760,
            "max" : [
                0.5811911821365356,
                -0.4302467107772827,
                0.6028329730033875
            ],
            "min" : [
                -0.5749053955078125,
                -1,
                -1.268447756767273
            ],
            "type" : "VEC3"
        },
        {
            "bufferView" : 1,
            "componentType" : 5126,
            "count" : 760,
            "type" : "VEC3"
        },
        {
            "bufferView" : 2,
            "componentType" : 5126,
            "count" : 760,
            "type" : "VEC2"
        },
        {
            "bufferView" : 3,
            "componentType" : 5123,
            "count" : 1170,
            "type" : "SCALAR"
        },
        {
            "bufferView" : 4,
            "componentType" : 5126,
            "count" : 1984,
            "max" : [
                0.13776658475399017,
                1.6845141649246216,
                -0.6139110326766968
            ],
            "min" : [
                -0.14208920300006866,
                -0.5721452236175537,
                -0.6327025294303894
            ],
            "type" : "VEC3"
        },
        {
            "bufferView" : 5,
            "componentType" : 5126,
            "count" : 1984,
            "type" : "VEC3"
        },
        {
            "bufferView" : 6,
            "componentType" : 5126,
            "count" : 1984,
            "type" : "VEC2"
        },
        {
            "bufferView" : 7,
            "componentType" : 5123,
            "count" : 3000,
            "type" : "SCALAR"
        },
        {
            "bufferView" : 8,
            "componentType" : 5126,
            "count" : 5927,
            "max" : [
                0.2375488579273224,
                3.556180238723755,
                -0.45314398407936096
            ],
            "min" : [
                -0.6241832971572876,
                2.038034677505493,
                -0.6854492425918579
            ],
            "type" : "VEC3"
        },
        {
            "bufferView" : 9,
            "componentType" : 5126,
            "count" : 5927,
            "type" : "VEC3"
        },
        {
            "bufferView" : 10,
            "componentType" : 5126,
            "count" : 5927,
            "type" : "VEC2"
        },
        {
            "bufferView" : 11,
            "componentType" : 5123,
            "count" : 8976,
            "type" : "SCALAR"
        },
        {
            "bufferView" : 12,
            "componentType" : 5126,
            "count" : 3836,
            "max" : [
                0.8792264461517334,
                7.133742332458496,
                0.6246088743209839
            ],
            "min" : [
                -1.3495817184448242,
                -1.0026659965515137,
                -0.669326663017273
            ],
            "type" : "VEC3"
        },
        {
            "bufferView" : 13,
            "componentType" : 5126,
            "count" : 3836,
            "type" : "VEC3"
        },
        {
            "bufferView" : 14,
            "componentType" : 5126,
            "count" : 3836,
            "type" : "VEC2"
        },
        {
            "bufferView" : 15,
            "componentType" : 5123,
            "count" : 5802,
            "type" : "SCALAR"
        },
        {
            "bufferView" : 16,
            "componentType" : 5126,
            "count" : 455,
            "max" : [
                0.05363576114177704,
                0.8092892169952393,
                -0.6364796161651611
            ],
            "min" : [
                -0.06358719617128372,
                0.4676949977874756,
                -0.6431224346160889
            ],
            "type" : "VEC3"
        },
        {
            "bufferView" : 17,
            "componentType" : 5126,
            "count" : 455,
            "type" : "VEC3"
        },
        {
            "bufferView" : 18,
            "componentType" : 5126,
            "count" : 455,
            "type" : "VEC2"
        },
        {
            "bufferView" : 19,
            "componentType" : 5123,
            "count" : 684,
            "type" : "SCALAR"
        },
        {
            "bufferView" : 20,
            "componentType" : 5126,
            "count" : 64,
            "max" : [
                0.028330883011221886,
                0.7200193405151367,
                -0.6388522386550903
            ],
            "min" : [
                -0.033058106899261475,
                0.5463216304779053,
                -0.6443549990653992
            ],
            "type" : "VEC3"
        },
        {
            "bufferView" : 21,
            "componentType" : 5126,
            "count" : 64,
            "type" : "VEC3"
        },
        {
            "bufferView" : 22,
            "componentType" : 5126,
            "count" : 64,
            "type" : "VEC2"
        },
        {
            "bufferView" : 23,
            "componentType" : 5123,
            "count" : 96,
            "type" : "SCALAR"
        }
    ],
    "bufferViews" : [
        {
            "buffer" : 0,
            "byteLength" : 9120,
            "byteOffset" : 0
        },
        {
            "buffer" : 0,
            "byteLength" : 9120,
            "byteOffset" : 9120
        },
        {
            "buffer" : 0,
            "byteLength" : 6080,
            "byteOffset" : 18240
        },
        {
            "buffer" : 0,
            "byteLength" : 2340,
            "byteOffset" : 24320
        },
        {
            "buffer" : 0,
            "byteLength" : 23808,
            "byteOffset" : 26660
        },
        {
            "buffer" : 0,
            "byteLength" : 23808,
            "byteOffset" : 50468
        },
        {
            "buffer" : 0,
            "byteLength" : 15872,
            "byteOffset" : 74276
        },
        {
            "buffer" : 0,
            "byteLength" : 6000,
            "byteOffset" : 90148
        },
        {
            "buffer" : 0,
            "byteLength" : 71124,
            "byteOffset" : 96148
        },
        {
            "buffer" : 0,
            "byteLength" : 71124,
            "byteOffset" : 167272
        },
        {
            "buffer" : 0,
            "byteLength" : 47416,
            "byteOffset" : 238396
        },
        {
            "buffer" : 0,
            "byteLength" : 17952,
            "byteOffset" : 285812
        },
        {
            "buffer" : 0,
            "byteLength" : 46032,
            "byteOffset" : 303764
        },
        {
            "buffer" : 0,
            "byteLength" : 46032,
            "byteOffset" : 349796
        },
        {
            "buffer" : 0,
            "byteLength" : 30688,
            "byteOffset" : 395828
        },
        {
            "buffer" : 0,
            "byteLength" : 11604,
            "byteOffset" : 426516
        },
        {
            "buffer" : 0,
            "byteLength" : 5460,
            "byteOffset" : 438120
        },
        {
            "buffer" : 0,
            "byteLength" : 5460,
            "byteOffset" : 443580
        },
        {
            "buffer" : 0,
            "byteLength" : 3640,
            "byteOffset" : 449040
        },
        {
            "buffer" : 0,
            "byteLength" : 1368,
            "byteOffset" : 452680
        },
        {
            "buffer" : 0,
            "byteLength" : 768,
            "byteOffset" : 454048
        },
        {
            "buffer" : 0,
            "byteLength" : 768,
            "byteOffset" : 454816
        },
        {
            "buffer" : 0,
            "byteLength" : 512,
            "byteOffset" : 455584
        },
        {
            "buffer" : 0,
            "byteLength" : 192,
            "byteOffset" : 456096
        }
    ],
    "buffers" : [
        {
            "byteLength" : 456288,
            "uri" : "temple.bin"
        }
    ]
}
