{
    "asset" : {
        "generator" : "Khronos glTF Blender I/O v1.4.40",
        "version" : "2.0"
    },
    "extensionsUsed" : [
        "KHR_materials_transmission"
    ],
    "scene" : 0,
    "scenes" : [
        {
            "name" : "Scene",
            "nodes" : [
                0,
                1,
                2
            ]
        }
    ],
    "nodes" : [
        {
            "name" : "Light",
            "rotation" : [
                0.16907575726509094,
                0.7558803558349609,
                -0.27217137813568115,
                0.570947527885437
            ],
            "translation" : [
                4.076245307922363,
                5.903861999511719,
                -1.0054539442062378
            ]
        },
        {
            "name" : "Camera",
            "rotation" : [
                0.483536034822464,
                0.33687159419059753,
                -0.20870360732078552,
                0.7804827094078064
            ],
            "translation" : [
                7.358891487121582,
                4.958309173583984,
                6.925790786743164
            ]
        },
        {
            "mesh" : 0,
            "name" : "Cube.011",
            "scale" : [
                2.173368453979492,
                0.7475255131721497,
                2.0918664932250977
            ],
            "translation" : [
                0,
                0.7383745312690735,
                0.40014219284057617
            ]
        }
    ],
    "materials" : [
        {
            "doubleSided" : true,
            "name" : "sandsocle",
            "pbrMetallicRoughness" : {
                "metallicFactor" : 0,
                "roughnessFactor" : 0.5
            }
        },
        {
            "doubleSided" : true,
            "extensions" : {
                "KHR_materials_transmission" : {
                    "transmissionFactor" : 1
                }
            },
            "name" : "brasier",
            "pbrMetallicRoughness" : {
                "metallicFactor" : 0.6272727251052856,
                "roughnessFactor" : 0.5272727012634277
            }
        },
        {
            "doubleSided" : true,
            "name" : "fenetre",
            "pbrMetallicRoughness" : {
                "metallicFactor" : 0,
                "roughnessFactor" : 0.5
            }
        },
        {
            "doubleSided" : true,
            "name" : "megastone",
            "pbrMetallicRoughness" : {
                "metallicFactor" : 0,
                "roughnessFactor" : 0.5
            }
        },
        {
            "doubleSided" : true,
            "emissiveFactor" : [
                1,
                1,
                0.5127826528504613
            ],
            "name" : "feu",
            "pbrMetallicRoughness" : {}
        }
    ],
    "meshes" : [
        {
            "name" : "Cube.003",
            "primitives" : [
                {
                    "attributes" : {
                        "POSITION" : 0,
                        "NORMAL" : 1,
                        "TEXCOORD_0" : 2
                    },
                    "indices" : 3,
                    "material" : 0
                },
                {
                    "attributes" : {
                        "POSITION" : 4,
                        "NORMAL" : 5,
                        "TEXCOORD_0" : 6
                    },
                    "indices" : 7,
                    "material" : 1
                },
                {
                    "attributes" : {
                        "POSITION" : 8,
                        "NORMAL" : 9,
                        "TEXCOORD_0" : 10
                    },
                    "indices" : 11,
                    "material" : 2
                },
                {
                    "attributes" : {
                        "POSITION" : 12,
                        "NORMAL" : 13,
                        "TEXCOORD_0" : 14
                    },
                    "indices" : 15,
                    "material" : 3
                },
                {
                    "attributes" : {
                        "POSITION" : 16,
                        "NORMAL" : 17,
                        "TEXCOORD_0" : 18
                    },
                    "indices" : 19,
                    "material" : 4
                }
            ]
        }
    ],
    "accessors" : [
        {
            "bufferView" : 0,
            "componentType" : 5126,
            "count" : 184,
            "max" : [
                0.5811911821365356,
                -0.4302467107772827,
                0.6028329730033875
            ],
            "min" : [
                -0.5749053955078125,
                -1,
                -1.268447756767273
            ],
            "type" : "VEC3"
        },
        {
            "bufferView" : 1,
            "componentType" : 5126,
            "count" : 184,
            "type" : "VEC3"
        },
        {
            "bufferView" : 2,
            "componentType" : 5126,
            "count" : 184,
            "type" : "VEC2"
        },
        {
            "bufferView" : 3,
            "componentType" : 5123,
            "count" : 306,
            "type" : "SCALAR"
        },
        {
            "bufferView" : 4,
            "componentType" : 5126,
            "count" : 141,
            "max" : [
                0.13776658475399017,
                1.688926100730896,
                -0.6139110326766968
            ],
            "min" : [
                -0.14208920300006866,
                -0.5721452236175537,
                -0.644355058670044
            ],
            "type" : "VEC3"
        },
        {
            "bufferView" : 5,
            "componentType" : 5126,
            "count" : 141,
            "type" : "VEC3"
        },
        {
            "bufferView" : 6,
            "componentType" : 5126,
            "count" : 141,
            "type" : "VEC2"
        },
        {
            "bufferView" : 7,
            "componentType" : 5123,
            "count" : 216,
            "type" : "SCALAR"
        },
        {
            "bufferView" : 8,
            "componentType" : 5126,
            "count" : 568,
            "max" : [
                0.23780953884124756,
                3.5567665100097656,
                -0.45314398407936096
            ],
            "min" : [
                -0.6241832971572876,
                2.038034677505493,
                -0.6854492425918579
            ],
            "type" : "VEC3"
        },
        {
            "bufferView" : 9,
            "componentType" : 5126,
            "count" : 568,
            "type" : "VEC3"
        },
        {
            "bufferView" : 10,
            "componentType" : 5126,
            "count" : 568,
            "type" : "VEC2"
        },
        {
            "bufferView" : 11,
            "componentType" : 5123,
            "count" : 864,
            "type" : "SCALAR"
        },
        {
            "bufferView" : 12,
            "componentType" : 5126,
            "count" : 154,
            "max" : [
                0.8792264461517334,
                7.133742332458496,
                0.6246088743209839
            ],
            "min" : [
                -1.3495817184448242,
                -1.0026659965515137,
                -0.669326663017273
            ],
            "type" : "VEC3"
        },
        {
            "bufferView" : 13,
            "componentType" : 5126,
            "count" : 154,
            "type" : "VEC3"
        },
        {
            "bufferView" : 14,
            "componentType" : 5126,
            "count" : 154,
            "type" : "VEC2"
        },
        {
            "bufferView" : 15,
            "componentType" : 5123,
            "count" : 258,
            "type" : "SCALAR"
        },
        {
            "bufferView" : 16,
            "componentType" : 5126,
            "count" : 452,
            "max" : [
                0.05363576486706734,
                0.8092892169952393,
                -0.6364796757698059
            ],
            "min" : [
                -0.06358721107244492,
                0.4676952362060547,
                -0.6431224942207336
            ],
            "type" : "VEC3"
        },
        {
            "bufferView" : 17,
            "componentType" : 5126,
            "count" : 452,
            "type" : "VEC3"
        },
        {
            "bufferView" : 18,
            "componentType" : 5126,
            "count" : 452,
            "type" : "VEC2"
        },
        {
            "bufferView" : 19,
            "componentType" : 5123,
            "count" : 684,
            "type" : "SCALAR"
        }
    ],
    "bufferViews" : [
        {
            "buffer" : 0,
            "byteLength" : 2208,
            "byteOffset" : 0
        },
        {
            "buffer" : 0,
            "byteLength" : 2208,
            "byteOffset" : 2208
        },
        {
            "buffer" : 0,
            "byteLength" : 1472,
            "byteOffset" : 4416
        },
        {
            "buffer" : 0,
            "byteLength" : 612,
            "byteOffset" : 5888
        },
        {
            "buffer" : 0,
            "byteLength" : 1692,
            "byteOffset" : 6500
        },
        {
            "buffer" : 0,
            "byteLength" : 1692,
            "byteOffset" : 8192
        },
        {
            "buffer" : 0,
            "byteLength" : 1128,
            "byteOffset" : 9884
        },
        {
            "buffer" : 0,
            "byteLength" : 432,
            "byteOffset" : 11012
        },
        {
            "buffer" : 0,
            "byteLength" : 6816,
            "byteOffset" : 11444
        },
        {
            "buffer" : 0,
            "byteLength" : 6816,
            "byteOffset" : 18260
        },
        {
            "buffer" : 0,
            "byteLength" : 4544,
            "byteOffset" : 25076
        },
        {
            "buffer" : 0,
            "byteLength" : 1728,
            "byteOffset" : 29620
        },
        {
            "buffer" : 0,
            "byteLength" : 1848,
            "byteOffset" : 31348
        },
        {
            "buffer" : 0,
            "byteLength" : 1848,
            "byteOffset" : 33196
        },
        {
            "buffer" : 0,
            "byteLength" : 1232,
            "byteOffset" : 35044
        },
        {
            "buffer" : 0,
            "byteLength" : 516,
            "byteOffset" : 36276
        },
        {
            "buffer" : 0,
            "byteLength" : 5424,
            "byteOffset" : 36792
        },
        {
            "buffer" : 0,
            "byteLength" : 5424,
            "byteOffset" : 42216
        },
        {
            "buffer" : 0,
            "byteLength" : 3616,
            "byteOffset" : 47640
        },
        {
            "buffer" : 0,
            "byteLength" : 1368,
            "byteOffset" : 51256
        }
    ],
    "buffers" : [
        {
            "byteLength" : 52624,
            "uri" : "templelowpoly.bin"
        }
    ]
}
