{
    "asset" : {
        "generator" : "Khronos glTF Blender I/O v1.4.40",
        "version" : "2.0"
    },
    "extensionsUsed" : [
        "KHR_materials_transmission"
    ],
    "scene" : 0,
    "scenes" : [
        {
            "name" : "Scene",
            "nodes" : [
                0
            ]
        }
    ],
    "nodes" : [
        {
            "mesh" : 0,
            "name" : "brasier",
            "rotation" : [
                0,
                0.3363378047943115,
                0,
                0.941741406917572
            ],
            "scale" : [
                0.06745953112840652,
                0.06745953112840652,
                0.06745953112840652
            ],
            "translation" : [
                -0.19591820240020752,
                0.05964475870132446,
                -0.015562945045530796
            ]
        }
    ],
    "materials" : [
        {
            "doubleSided" : true,
            "extensions" : {
                "KHR_materials_transmission" : {
                    "transmissionFactor" : 1
                }
            },
            "name" : "brasier",
            "pbrMetallicRoughness" : {
                "metallicFactor" : 0.6272727251052856,
                "roughnessFactor" : 0.5272727012634277
            }
        },
        {
            "doubleSided" : true,
            "emissiveFactor" : [
                1,
                0.8824743032455444,
                0.2930186986923218
            ],
            "name" : "feu",
            "pbrMetallicRoughness" : {}
        }
    ],
    "meshes" : [
        {
            "name" : "Plane.015",
            "primitives" : [
                {
                    "attributes" : {
                        "POSITION" : 0,
                        "NORMAL" : 1,
                        "TEXCOORD_0" : 2
                    },
                    "indices" : 3,
                    "material" : 0
                },
                {
                    "attributes" : {
                        "POSITION" : 4,
                        "NORMAL" : 5,
                        "TEXCOORD_0" : 6
                    },
                    "indices" : 7,
                    "material" : 1
                }
            ]
        }
    ],
    "accessors" : [
        {
            "bufferView" : 0,
            "componentType" : 5126,
            "count" : 458,
            "max" : [
                6.040238380432129,
                2.5465831756591797,
                5.280520439147949
            ],
            "min" : [
                -1.838207483291626,
                -0.03939950466156006,
                -1.2439253330230713
            ],
            "type" : "VEC3"
        },
        {
            "bufferView" : 1,
            "componentType" : 5126,
            "count" : 458,
            "type" : "VEC3"
        },
        {
            "bufferView" : 2,
            "componentType" : 5126,
            "count" : 458,
            "type" : "VEC2"
        },
        {
            "bufferView" : 3,
            "componentType" : 5123,
            "count" : 804,
            "type" : "SCALAR"
        },
        {
            "bufferView" : 4,
            "componentType" : 5126,
            "count" : 252,
            "max" : [
                4.411177635192871,
                4.695262432098389,
                4.257870674133301
            ],
            "min" : [
                -0.009887933731079102,
                1.3505680561065674,
                -0.4779069423675537
            ],
            "type" : "VEC3"
        },
        {
            "bufferView" : 5,
            "componentType" : 5126,
            "count" : 252,
            "type" : "VEC3"
        },
        {
            "bufferView" : 6,
            "componentType" : 5126,
            "count" : 252,
            "type" : "VEC2"
        },
        {
            "bufferView" : 7,
            "componentType" : 5123,
            "count" : 378,
            "type" : "SCALAR"
        }
    ],
    "bufferViews" : [
        {
            "buffer" : 0,
            "byteLength" : 5496,
            "byteOffset" : 0
        },
        {
            "buffer" : 0,
            "byteLength" : 5496,
            "byteOffset" : 5496
        },
        {
            "buffer" : 0,
            "byteLength" : 3664,
            "byteOffset" : 10992
        },
        {
            "buffer" : 0,
            "byteLength" : 1608,
            "byteOffset" : 14656
        },
        {
            "buffer" : 0,
            "byteLength" : 3024,
            "byteOffset" : 16264
        },
        {
            "buffer" : 0,
            "byteLength" : 3024,
            "byteOffset" : 19288
        },
        {
            "buffer" : 0,
            "byteLength" : 2016,
            "byteOffset" : 22312
        },
        {
            "buffer" : 0,
            "byteLength" : 756,
            "byteOffset" : 24328
        }
    ],
    "buffers" : [
        {
            "byteLength" : 25084,
            "uri" : "brasier.bin"
        }
    ]
}
