{
    "asset" : {
        "generator" : "Khronos glTF Blender I/O v1.4.40",
        "version" : "2.0"
    },
    "scene" : 0,
    "scenes" : [
        {
            "name" : "Scene",
            "nodes" : [
                0
            ]
        }
    ],
    "nodes" : [
        {
            "mesh" : 0,
            "name" : "statue1.001",
            "rotation" : [
                0.3466009199619293,
                -0.29811179637908936,
                -0.12022406607866287,
                0.8812169432640076
            ],
            "translation" : [
                0,
                4.3911848068237305,
                0
            ]
        }
    ],
    "materials" : [
        {
            "doubleSided" : true,
            "name" : "stone",
            "pbrMetallicRoughness" : {
                "metallicFactor" : 0,
                "roughnessFactor" : 0.5
            }
        }
    ],
    "meshes" : [
        {
            "name" : "Cube.011",
            "primitives" : [
                {
                    "attributes" : {
                        "POSITION" : 0,
                        "NORMAL" : 1,
                        "TEXCOORD_0" : 2
                    },
                    "indices" : 3,
                    "material" : 0
                }
            ]
        }
    ],
    "accessors" : [
        {
            "bufferView" : 0,
            "componentType" : 5126,
            "count" : 1606,
            "max" : [
                2.549692153930664,
                4.195250034332275,
                3.579824924468994
            ],
            "min" : [
                -1.771438717842102,
                -5.2657790184021,
                -1.5099519491195679
            ],
            "type" : "VEC3"
        },
        {
            "bufferView" : 1,
            "componentType" : 5126,
            "count" : 1606,
            "type" : "VEC3"
        },
        {
            "bufferView" : 2,
            "componentType" : 5126,
            "count" : 1606,
            "type" : "VEC2"
        },
        {
            "bufferView" : 3,
            "componentType" : 5123,
            "count" : 2406,
            "type" : "SCALAR"
        }
    ],
    "bufferViews" : [
        {
            "buffer" : 0,
            "byteLength" : 19272,
            "byteOffset" : 0
        },
        {
            "buffer" : 0,
            "byteLength" : 19272,
            "byteOffset" : 19272
        },
        {
            "buffer" : 0,
            "byteLength" : 12848,
            "byteOffset" : 38544
        },
        {
            "buffer" : 0,
            "byteLength" : 4812,
            "byteOffset" : 51392
        }
    ],
    "buffers" : [
        {
            "byteLength" : 56204,
            "uri" : "statue2.bin"
        }
    ]
}
