{
    "asset" : {
        "generator" : "Khronos glTF Blender I/O v1.4.40",
        "version" : "2.0"
    },
    "extensionsUsed" : [
        "KHR_materials_transmission"
    ],
    "scene" : 0,
    "scenes" : [
        {
            "name" : "Scene",
            "nodes" : [
                0,
                1,
                2,
                3,
                4
            ]
        }
    ],
    "nodes" : [
        {
            "name" : "Camera",
            "rotation" : [
                -0.28199511766433716,
                0.6513378024101257,
                -0.6462697386741638,
                -0.28030925989151
            ],
            "translation" : [
                -4.070659160614014,
                1.6536017656326294,
                -5.742638111114502
            ]
        },
        {
            "mesh" : 0,
            "name" : "armature_d",
            "rotation" : [
                0.012019137851893902,
                -0.7082988023757935,
                -0.7056697607040405,
                0.014091791585087776
            ],
            "translation" : [
                -0.13540980219841003,
                0.3288009762763977,
                -0.9084749817848206
            ]
        },
        {
            "mesh" : 1,
            "name" : "batant_d",
            "rotation" : [
                -0.4990604519844055,
                0.5009378790855408,
                -0.5009377598762512,
                0.49906039237976074
            ],
            "translation" : [
                -0.13540977239608765,
                0.3288010358810425,
                -0.9084749817848206
            ]
        },
        {
            "mesh" : 2,
            "name" : "armature_g",
            "rotation" : [
                0.012019137851893902,
                -0.7082988023757935,
                -0.7056697607040405,
                0.014091791585087776
            ],
            "translation" : [
                0.3829045593738556,
                0.3279104232788086,
                -0.908413290977478
            ]
        },
        {
            "mesh" : 3,
            "name" : "batant_g",
            "rotation" : [
                -0.4990604519844055,
                0.5009378790855408,
                -0.5009377598762512,
                0.49906039237976074
            ],
            "translation" : [
                0.3829045295715332,
                0.3279104232788086,
                -0.908413290977478
            ]
        }
    ],
    "materials" : [
        {
            "doubleSided" : true,
            "emissiveFactor" : [
                1,
                1,
                1
            ],
            "emissiveTexture" : {
                "index" : 0,
                "texCoord" : 0
            },
            "extensions" : {
                "KHR_materials_transmission" : {
                    "transmissionFactor" : 1
                }
            },
            "name" : "armature_droit",
            "pbrMetallicRoughness" : {
                "metallicFactor" : 0.8954545259475708,
                "roughnessFactor" : 0.34090906381607056
            }
        },
        {
            "doubleSided" : true,
            "emissiveFactor" : [
                1,
                1,
                1
            ],
            "emissiveTexture" : {
                "index" : 1,
                "texCoord" : 0
            },
            "name" : "bois_droit",
            "pbrMetallicRoughness" : {
                "metallicFactor" : 0,
                "roughnessFactor" : 0.5727270245552063
            }
        }
    ],
    "meshes" : [
        {
            "name" : "Plane.092",
            "primitives" : [
                {
                    "attributes" : {
                        "POSITION" : 0,
                        "NORMAL" : 1,
                        "TEXCOORD_0" : 2
                    },
                    "indices" : 3,
                    "material" : 0
                }
            ]
        },
        {
            "name" : "Plane.115",
            "primitives" : [
                {
                    "attributes" : {
                        "POSITION" : 4,
                        "NORMAL" : 5,
                        "TEXCOORD_0" : 6
                    },
                    "indices" : 7,
                    "material" : 1
                }
            ]
        },
        {
            "name" : "Plane.113",
            "primitives" : [
                {
                    "attributes" : {
                        "POSITION" : 8,
                        "NORMAL" : 9,
                        "TEXCOORD_0" : 10
                    },
                    "indices" : 11,
                    "material" : 0
                }
            ]
        },
        {
            "name" : "Plane.061",
            "primitives" : [
                {
                    "attributes" : {
                        "POSITION" : 12,
                        "NORMAL" : 13,
                        "TEXCOORD_0" : 14
                    },
                    "indices" : 15,
                    "material" : 1
                }
            ]
        }
    ],
    "textures" : [
        {
            "sampler" : 0,
            "source" : 0
        },
        {
            "sampler" : 0,
            "source" : 0
        }
    ],
    "images" : [
        {
            "mimeType" : "image/png",
            "name" : "texture_porte",
            "uri" : "texture_porte.png"
        }
    ],
    "accessors" : [
        {
            "bufferView" : 0,
            "componentType" : 5126,
            "count" : 1886,
            "max" : [
                0.004109710454940796,
                0.00680159404873848,
                1.6037089824676514
            ],
            "min" : [
                -0.317933589220047,
                -0.040527671575546265,
                -0.01062995195388794
            ],
            "type" : "VEC3"
        },
        {
            "bufferView" : 1,
            "componentType" : 5126,
            "count" : 1886,
            "type" : "VEC3"
        },
        {
            "bufferView" : 2,
            "componentType" : 5126,
            "count" : 1886,
            "type" : "VEC2"
        },
        {
            "bufferView" : 3,
            "componentType" : 5123,
            "count" : 2826,
            "type" : "SCALAR"
        },
        {
            "bufferView" : 4,
            "componentType" : 5126,
            "count" : 20,
            "max" : [
                -0.015088081359863281,
                0.032047271728515625,
                0.2505383789539337
            ],
            "min" : [
                -1.6068015098571777,
                0.006100475788116455,
                0.01038941740989685
            ],
            "type" : "VEC3"
        },
        {
            "bufferView" : 5,
            "componentType" : 5126,
            "count" : 20,
            "type" : "VEC3"
        },
        {
            "bufferView" : 6,
            "componentType" : 5126,
            "count" : 20,
            "type" : "VEC2"
        },
        {
            "bufferView" : 7,
            "componentType" : 5123,
            "count" : 30,
            "type" : "SCALAR"
        },
        {
            "bufferView" : 8,
            "componentType" : 5126,
            "count" : 1886,
            "max" : [
                0.2577964663505554,
                0.00556463748216629,
                1.6234050989151
            ],
            "min" : [
                -0.055958107113838196,
                -0.04131268337368965,
                -0.00036454200744628906
            ],
            "type" : "VEC3"
        },
        {
            "bufferView" : 9,
            "componentType" : 5126,
            "count" : 1886,
            "type" : "VEC3"
        },
        {
            "bufferView" : 10,
            "componentType" : 5126,
            "count" : 1886,
            "type" : "VEC2"
        },
        {
            "bufferView" : 11,
            "componentType" : 5123,
            "count" : 2826,
            "type" : "SCALAR"
        },
        {
            "bufferView" : 12,
            "componentType" : 5126,
            "count" : 20,
            "max" : [
                -0.014032483100891113,
                0.03210902214050293,
                -0.02170848846435547
            ],
            "min" : [
                -1.605745792388916,
                0.00616222620010376,
                -0.26185745000839233
            ],
            "type" : "VEC3"
        },
        {
            "bufferView" : 13,
            "componentType" : 5126,
            "count" : 20,
            "type" : "VEC3"
        },
        {
            "bufferView" : 14,
            "componentType" : 5126,
            "count" : 20,
            "type" : "VEC2"
        },
        {
            "bufferView" : 15,
            "componentType" : 5123,
            "count" : 30,
            "type" : "SCALAR"
        }
    ],
    "bufferViews" : [
        {
            "buffer" : 0,
            "byteLength" : 22632,
            "byteOffset" : 0
        },
        {
            "buffer" : 0,
            "byteLength" : 22632,
            "byteOffset" : 22632
        },
        {
            "buffer" : 0,
            "byteLength" : 15088,
            "byteOffset" : 45264
        },
        {
            "buffer" : 0,
            "byteLength" : 5652,
            "byteOffset" : 60352
        },
        {
            "buffer" : 0,
            "byteLength" : 240,
            "byteOffset" : 66004
        },
        {
            "buffer" : 0,
            "byteLength" : 240,
            "byteOffset" : 66244
        },
        {
            "buffer" : 0,
            "byteLength" : 160,
            "byteOffset" : 66484
        },
        {
            "buffer" : 0,
            "byteLength" : 60,
            "byteOffset" : 66644
        },
        {
            "buffer" : 0,
            "byteLength" : 22632,
            "byteOffset" : 66704
        },
        {
            "buffer" : 0,
            "byteLength" : 22632,
            "byteOffset" : 89336
        },
        {
            "buffer" : 0,
            "byteLength" : 15088,
            "byteOffset" : 111968
        },
        {
            "buffer" : 0,
            "byteLength" : 5652,
            "byteOffset" : 127056
        },
        {
            "buffer" : 0,
            "byteLength" : 240,
            "byteOffset" : 132708
        },
        {
            "buffer" : 0,
            "byteLength" : 240,
            "byteOffset" : 132948
        },
        {
            "buffer" : 0,
            "byteLength" : 160,
            "byteOffset" : 133188
        },
        {
            "buffer" : 0,
            "byteLength" : 60,
            "byteOffset" : 133348
        }
    ],
    "samplers" : [
        {
            "magFilter" : 9729,
            "minFilter" : 9986
        }
    ],
    "buffers" : [
        {
            "byteLength" : 133408,
            "uri" : "porte.bin"
        }
    ]
}
