{
    "asset" : {
        "generator" : "Khronos glTF Blender I/O v1.4.40",
        "version" : "2.0"
    },
    "extensionsUsed" : [
        "KHR_materials_transmission"
    ],
    "scene" : 0,
    "scenes" : [
        {
            "name" : "Scene",
            "nodes" : [
                0,
                1,
                2,
                3
            ]
        }
    ],
    "nodes" : [
        {
            "mesh" : 0,
            "name" : "armaturedroit",
            "scale" : [
                0.8258736729621887,
                0.7433239817619324,
                0.7433239817619324
            ],
            "translation" : [
                -0.12117063999176025,
                0.3869890570640564,
                -0.9320025444030762
            ]
        },
        {
            "mesh" : 1,
            "name" : "boisdroit",
            "rotation" : [
                -0.4990604519844055,
                0.5009378790855408,
                -0.5009377598762512,
                0.49906039237976074
            ],
            "scale" : [
                1.12203848361969,
                1.0098859071731567,
                -1.0925205945968628
            ],
            "translation" : [
                -0.12117061764001846,
                0.38698893785476685,
                -0.9320025444030762
            ]
        },
        {
            "mesh" : 2,
            "name" : "armaturegauche",
            "scale" : [
                0.8258736729621887,
                0.7433239817619324,
                0.7433239817619324
            ],
            "translation" : [
                0.37808680534362793,
                0.38698428869247437,
                -0.9298299551010132
            ]
        },
        {
            "mesh" : 3,
            "name" : "boisgauche",
            "rotation" : [
                -0.4990604519844055,
                0.5009378790855408,
                -0.5009377598762512,
                0.49906039237976074
            ],
            "scale" : [
                1.12203848361969,
                1.0098859071731567,
                -1.0925205945968628
            ],
            "translation" : [
                0.3780868351459503,
                0.3869842290878296,
                -0.9298299551010132
            ]
        }
    ],
    "materials" : [
        {
            "doubleSided" : true,
            "emissiveFactor" : [
                1,
                1,
                1
            ],
            "emissiveTexture" : {
                "index" : 0,
                "texCoord" : 0
            },
            "extensions" : {
                "KHR_materials_transmission" : {
                    "transmissionFactor" : 1
                }
            },
            "name" : "armature",
            "pbrMetallicRoughness" : {
                "metallicFactor" : 0.8954545259475708,
                "roughnessFactor" : 0.34090906381607056
            }
        },
        {
            "doubleSided" : true,
            "emissiveFactor" : [
                1,
                1,
                1
            ],
            "emissiveTexture" : {
                "index" : 1,
                "texCoord" : 0
            },
            "name" : "ecorce",
            "pbrMetallicRoughness" : {
                "metallicFactor" : 0,
                "roughnessFactor" : 0.3636363446712494
            }
        }
    ],
    "meshes" : [
        {
            "name" : "Plane.079",
            "primitives" : [
                {
                    "attributes" : {
                        "POSITION" : 0,
                        "NORMAL" : 1,
                        "TEXCOORD_0" : 2
                    },
                    "indices" : 3,
                    "material" : 0
                }
            ]
        },
        {
            "name" : "Plane.055",
            "primitives" : [
                {
                    "attributes" : {
                        "POSITION" : 4,
                        "NORMAL" : 5,
                        "TEXCOORD_0" : 6
                    },
                    "indices" : 7,
                    "material" : 1
                }
            ]
        },
        {
            "name" : "Plane.065",
            "primitives" : [
                {
                    "attributes" : {
                        "POSITION" : 8,
                        "NORMAL" : 9,
                        "TEXCOORD_0" : 10
                    },
                    "indices" : 11,
                    "material" : 0
                }
            ]
        },
        {
            "name" : "Plane.077",
            "primitives" : [
                {
                    "attributes" : {
                        "POSITION" : 12,
                        "NORMAL" : 13,
                        "TEXCOORD_0" : 14
                    },
                    "indices" : 15,
                    "material" : 1
                }
            ]
        }
    ],
    "textures" : [
        {
            "sampler" : 0,
            "source" : 0
        },
        {
            "sampler" : 0,
            "source" : 1
        }
    ],
    "images" : [
        {
            "mimeType" : "image/png",
            "name" : "texturearmaturetest",
            "uri" : "texturearmaturetest.png"
        },
        {
            "mimeType" : "image/png",
            "name" : "textureporteboistest",
            "uri" : "textureporteboistest.png"
        }
    ],
    "accessors" : [
        {
            "bufferView" : 0,
            "componentType" : 5126,
            "count" : 11505,
            "max" : [
                0.30056053400039673,
                2.162874698638916,
                0.03229057788848877
            ],
            "min" : [
                -0.026216953992843628,
                1.0371208190917969e-05,
                -0.023707468062639236
            ],
            "type" : "VEC3"
        },
        {
            "bufferView" : 1,
            "componentType" : 5126,
            "count" : 11505,
            "type" : "VEC3"
        },
        {
            "bufferView" : 2,
            "componentType" : 5126,
            "count" : 11505,
            "type" : "VEC2"
        },
        {
            "bufferView" : 3,
            "componentType" : 5123,
            "count" : 17466,
            "type" : "SCALAR"
        },
        {
            "bufferView" : 4,
            "componentType" : 5126,
            "count" : 20,
            "max" : [
                -0.009594738483428955,
                0.008069160394370556,
                0.004839405417442322
            ],
            "min" : [
                -1.4172532558441162,
                -0.013941539451479912,
                -0.22155572474002838
            ],
            "type" : "VEC3"
        },
        {
            "bufferView" : 5,
            "componentType" : 5126,
            "count" : 20,
            "type" : "VEC3"
        },
        {
            "bufferView" : 6,
            "componentType" : 5126,
            "count" : 20,
            "type" : "VEC2"
        },
        {
            "bufferView" : 7,
            "componentType" : 5123,
            "count" : 30,
            "type" : "SCALAR"
        },
        {
            "bufferView" : 8,
            "componentType" : 5126,
            "count" : 11497,
            "max" : [
                0.021403074264526367,
                2.162881374359131,
                0.029367804527282715
            ],
            "min" : [
                -0.305374413728714,
                1.6808509826660156e-05,
                -0.02663024142384529
            ],
            "type" : "VEC3"
        },
        {
            "bufferView" : 9,
            "componentType" : 5126,
            "count" : 11497,
            "type" : "VEC3"
        },
        {
            "bufferView" : 10,
            "componentType" : 5126,
            "count" : 11497,
            "type" : "VEC2"
        },
        {
            "bufferView" : 11,
            "componentType" : 5123,
            "count" : 17466,
            "type" : "SCALAR"
        },
        {
            "bufferView" : 12,
            "componentType" : 5126,
            "count" : 20,
            "max" : [
                -0.007907181978225708,
                0.010220530442893505,
                0.23589013516902924
            ],
            "min" : [
                -1.415565848350525,
                -0.011790169402956963,
                0.009495005011558533
            ],
            "type" : "VEC3"
        },
        {
            "bufferView" : 13,
            "componentType" : 5126,
            "count" : 20,
            "type" : "VEC3"
        },
        {
            "bufferView" : 14,
            "componentType" : 5126,
            "count" : 20,
            "type" : "VEC2"
        },
        {
            "bufferView" : 15,
            "componentType" : 5123,
            "count" : 30,
            "type" : "SCALAR"
        }
    ],
    "bufferViews" : [
        {
            "buffer" : 0,
            "byteLength" : 138060,
            "byteOffset" : 0
        },
        {
            "buffer" : 0,
            "byteLength" : 138060,
            "byteOffset" : 138060
        },
        {
            "buffer" : 0,
            "byteLength" : 92040,
            "byteOffset" : 276120
        },
        {
            "buffer" : 0,
            "byteLength" : 34932,
            "byteOffset" : 368160
        },
        {
            "buffer" : 0,
            "byteLength" : 240,
            "byteOffset" : 403092
        },
        {
            "buffer" : 0,
            "byteLength" : 240,
            "byteOffset" : 403332
        },
        {
            "buffer" : 0,
            "byteLength" : 160,
            "byteOffset" : 403572
        },
        {
            "buffer" : 0,
            "byteLength" : 60,
            "byteOffset" : 403732
        },
        {
            "buffer" : 0,
            "byteLength" : 137964,
            "byteOffset" : 403792
        },
        {
            "buffer" : 0,
            "byteLength" : 137964,
            "byteOffset" : 541756
        },
        {
            "buffer" : 0,
            "byteLength" : 91976,
            "byteOffset" : 679720
        },
        {
            "buffer" : 0,
            "byteLength" : 34932,
            "byteOffset" : 771696
        },
        {
            "buffer" : 0,
            "byteLength" : 240,
            "byteOffset" : 806628
        },
        {
            "buffer" : 0,
            "byteLength" : 240,
            "byteOffset" : 806868
        },
        {
            "buffer" : 0,
            "byteLength" : 160,
            "byteOffset" : 807108
        },
        {
            "buffer" : 0,
            "byteLength" : 60,
            "byteOffset" : 807268
        }
    ],
    "samplers" : [
        {
            "magFilter" : 9729,
            "minFilter" : 9986
        }
    ],
    "buffers" : [
        {
            "byteLength" : 807328,
            "uri" : "porte.bin"
        }
    ]
}
