{
    "asset" : {
        "generator" : "Khronos glTF Blender I/O v1.4.40",
        "version" : "2.0"
    },
    "scene" : 0,
    "scenes" : [
        {
            "name" : "Scene",
            "nodes" : [
                0,
                1,
                2,
                3
            ]
        }
    ],
    "nodes" : [
        {
            "mesh" : 0,
            "name" : "armaturedroit",
            "scale" : [
                0.8258739709854126,
                0.7433239817619324,
                0.7433239817619324
            ],
            "translation" : [
                -0.13998045027256012,
                0.3322397768497467,
                -0.9101919531822205
            ]
        },
        {
            "mesh" : 1,
            "name" : "boisdroit",
            "rotation" : [
                -0.4990604519844055,
                0.5009378790855408,
                -0.5009377598762512,
                0.49906039237976074
            ],
            "scale" : [
                1.12203848361969,
                1.0098859071731567,
                -1.0925205945968628
            ],
            "translation" : [
                -0.1399804651737213,
                0.3322397768497467,
                -0.9101919531822205
            ]
        },
        {
            "mesh" : 2,
            "name" : "armaturegauche",
            "scale" : [
                0.8258736729621887,
                0.7433239817619324,
                0.7433239817619324
            ],
            "translation" : [
                0.393396258354187,
                0.33242562413215637,
                -0.91083824634552
            ]
        },
        {
            "mesh" : 3,
            "name" : "boisgauche",
            "rotation" : [
                -0.4990604519844055,
                0.5009378790855408,
                -0.5009377598762512,
                0.49906039237976074
            ],
            "scale" : [
                1.12203848361969,
                1.0098859071731567,
                -1.0925205945968628
            ],
            "translation" : [
                0.3933962881565094,
                0.332425594329834,
                -0.9108381867408752
            ]
        }
    ],
    "materials" : [
        {
            "doubleSided" : true,
            "emissiveFactor" : [
                1,
                1,
                1
            ],
            "emissiveTexture" : {
                "index" : 0,
                "texCoord" : 0
            },
            "name" : "armature_droit",
            "pbrMetallicRoughness" : {}
        },
        {
            "doubleSided" : true,
            "emissiveFactor" : [
                1,
                1,
                1
            ],
            "emissiveTexture" : {
                "index" : 1,
                "texCoord" : 0
            },
            "name" : "bois_droit",
            "pbrMetallicRoughness" : {}
        },
        {
            "doubleSided" : true,
            "emissiveFactor" : [
                1,
                1,
                1
            ],
            "emissiveTexture" : {
                "index" : 2,
                "texCoord" : 0
            },
            "name" : "armature_gauche",
            "pbrMetallicRoughness" : {}
        },
        {
            "doubleSided" : true,
            "emissiveFactor" : [
                1,
                1,
                1
            ],
            "emissiveTexture" : {
                "index" : 3,
                "texCoord" : 0
            },
            "name" : "bois_gauche",
            "pbrMetallicRoughness" : {}
        }
    ],
    "meshes" : [
        {
            "name" : "Plane.079",
            "primitives" : [
                {
                    "attributes" : {
                        "POSITION" : 0,
                        "NORMAL" : 1,
                        "TEXCOORD_0" : 2
                    },
                    "indices" : 3,
                    "material" : 0
                }
            ]
        },
        {
            "name" : "Plane.055",
            "primitives" : [
                {
                    "attributes" : {
                        "POSITION" : 4,
                        "NORMAL" : 5,
                        "TEXCOORD_0" : 6
                    },
                    "indices" : 7,
                    "material" : 1
                }
            ]
        },
        {
            "name" : "Plane.065",
            "primitives" : [
                {
                    "attributes" : {
                        "POSITION" : 8,
                        "NORMAL" : 9,
                        "TEXCOORD_0" : 10
                    },
                    "indices" : 11,
                    "material" : 2
                }
            ]
        },
        {
            "name" : "Plane.077",
            "primitives" : [
                {
                    "attributes" : {
                        "POSITION" : 12,
                        "NORMAL" : 13,
                        "TEXCOORD_0" : 14
                    },
                    "indices" : 15,
                    "material" : 3
                }
            ]
        }
    ],
    "textures" : [
        {
            "sampler" : 0,
            "source" : 0
        },
        {
            "sampler" : 0,
            "source" : 1
        },
        {
            "sampler" : 0,
            "source" : 2
        },
        {
            "sampler" : 0,
            "source" : 3
        }
    ],
    "images" : [
        {
            "mimeType" : "image/png",
            "name" : "armature_droit",
            "uri" : "armature_droit.png"
        },
        {
            "mimeType" : "image/png",
            "name" : "bois_droit",
            "uri" : "bois_droit.png"
        },
        {
            "mimeType" : "image/png",
            "name" : "armature_gauche",
            "uri" : "armature_gauche.png"
        },
        {
            "mimeType" : "image/png",
            "name" : "bois_gauche",
            "uri" : "bois_gauche.png"
        }
    ],
    "accessors" : [
        {
            "bufferView" : 0,
            "componentType" : 5126,
            "count" : 11502,
            "max" : [
                0.3233361840248108,
                2.1620640754699707,
                0.0029486417770385742
            ],
            "min" : [
                -0.0034413039684295654,
                -0.0008002519607543945,
                -0.05304940417408943
            ],
            "type" : "VEC3"
        },
        {
            "bufferView" : 1,
            "componentType" : 5126,
            "count" : 11502,
            "type" : "VEC3"
        },
        {
            "bufferView" : 2,
            "componentType" : 5126,
            "count" : 11502,
            "type" : "VEC2"
        },
        {
            "bufferView" : 3,
            "componentType" : 5123,
            "count" : 17466,
            "type" : "SCALAR"
        },
        {
            "bufferView" : 4,
            "componentType" : 5126,
            "count" : 20,
            "max" : [
                -0.009120553731918335,
                0.029666248708963394,
                -0.012379467487335205
            ],
            "min" : [
                -1.4167790412902832,
                0.007655547931790352,
                -0.2387745976448059
            ],
            "type" : "VEC3"
        },
        {
            "bufferView" : 5,
            "componentType" : 5126,
            "count" : 20,
            "type" : "VEC3"
        },
        {
            "bufferView" : 6,
            "componentType" : 5126,
            "count" : 20,
            "type" : "VEC2"
        },
        {
            "bufferView" : 7,
            "componentType" : 5123,
            "count" : 30,
            "type" : "SCALAR"
        },
        {
            "bufferView" : 8,
            "componentType" : 5126,
            "count" : 11456,
            "max" : [
                0.0023515522480010986,
                2.1618142127990723,
                0.004155397415161133
            ],
            "min" : [
                -0.32442593574523926,
                -0.0010502636432647705,
                -0.05184264853596687
            ],
            "type" : "VEC3"
        },
        {
            "bufferView" : 9,
            "componentType" : 5126,
            "count" : 11456,
            "type" : "VEC3"
        },
        {
            "bufferView" : 10,
            "componentType" : 5126,
            "count" : 11456,
            "type" : "VEC2"
        },
        {
            "bufferView" : 11,
            "componentType" : 5123,
            "count" : 17466,
            "type" : "SCALAR"
        },
        {
            "bufferView" : 12,
            "componentType" : 5126,
            "count" : 20,
            "max" : [
                -0.007149010896682739,
                0.029026392847299576,
                0.24990026652812958
            ],
            "min" : [
                -1.414807677268982,
                0.0070156920701265335,
                0.023505136370658875
            ],
            "type" : "VEC3"
        },
        {
            "bufferView" : 13,
            "componentType" : 5126,
            "count" : 20,
            "type" : "VEC3"
        },
        {
            "bufferView" : 14,
            "componentType" : 5126,
            "count" : 20,
            "type" : "VEC2"
        },
        {
            "bufferView" : 15,
            "componentType" : 5123,
            "count" : 30,
            "type" : "SCALAR"
        }
    ],
    "bufferViews" : [
        {
            "buffer" : 0,
            "byteLength" : 138024,
            "byteOffset" : 0
        },
        {
            "buffer" : 0,
            "byteLength" : 138024,
            "byteOffset" : 138024
        },
        {
            "buffer" : 0,
            "byteLength" : 92016,
            "byteOffset" : 276048
        },
        {
            "buffer" : 0,
            "byteLength" : 34932,
            "byteOffset" : 368064
        },
        {
            "buffer" : 0,
            "byteLength" : 240,
            "byteOffset" : 402996
        },
        {
            "buffer" : 0,
            "byteLength" : 240,
            "byteOffset" : 403236
        },
        {
            "buffer" : 0,
            "byteLength" : 160,
            "byteOffset" : 403476
        },
        {
            "buffer" : 0,
            "byteLength" : 60,
            "byteOffset" : 403636
        },
        {
            "buffer" : 0,
            "byteLength" : 137472,
            "byteOffset" : 403696
        },
        {
            "buffer" : 0,
            "byteLength" : 137472,
            "byteOffset" : 541168
        },
        {
            "buffer" : 0,
            "byteLength" : 91648,
            "byteOffset" : 678640
        },
        {
            "buffer" : 0,
            "byteLength" : 34932,
            "byteOffset" : 770288
        },
        {
            "buffer" : 0,
            "byteLength" : 240,
            "byteOffset" : 805220
        },
        {
            "buffer" : 0,
            "byteLength" : 240,
            "byteOffset" : 805460
        },
        {
            "buffer" : 0,
            "byteLength" : 160,
            "byteOffset" : 805700
        },
        {
            "buffer" : 0,
            "byteLength" : 60,
            "byteOffset" : 805860
        }
    ],
    "samplers" : [
        {
            "magFilter" : 9729,
            "minFilter" : 9986
        }
    ],
    "buffers" : [
        {
            "byteLength" : 805920,
            "uri" : "porte.bin"
        }
    ]
}
